<svg width="18" height="20" viewBox="0 0 18 20" fill="none" xmlns="http://www.w3.org/2000/svg">
<path fill-rule="evenodd" clip-rule="evenodd" d="M10.1557 14.2217C9.96583 13.8197 9.81324 13.5023 9.77694 13.4344C8.04797 10.2007 6.17194 7.00984 4.12937 3.96413C3.55708 3.11081 2.40044 2.88283 1.54712 3.45512C0.693797 4.02741 0.465813 5.18411 1.0381 6.03743C3.01181 8.97985 4.82356 12.0647 6.49484 15.1895C6.62232 15.4277 7.47195 17.5447 8.07867 18.4278C8.62863 19.2271 9.31909 19.5128 9.71458 19.5714C10.3427 19.6645 11.3254 19.4393 12.1229 18.3747C13.1642 16.9854 14.5144 13.2734 14.7368 12.6574C15.1443 11.524 15.4896 10.3347 15.8097 9.17806C16.4164 6.98381 16.7654 4.75045 17.0771 2.50037C17.2186 1.48234 16.5067 0.542497 15.4887 0.401053C14.4716 0.260539 13.5308 0.972443 13.3903 1.98954C13.1009 4.07678 12.7854 6.15001 12.2224 8.18514C11.9265 9.25249 11.6101 10.3515 11.2342 11.3974C11.1206 11.711 10.6796 13.0063 10.1557 14.2217Z" fill="black"/>
</svg>
