<?xml version="1.0" encoding="UTF-8" standalone="no"?>
<!-- Created with Inkscape (http://www.inkscape.org/) -->

<svg
        version="1.1"
        id="svg2193"
        width="19.762899"
        height="45.728256"
        xmlns:inkscape="http://www.inkscape.org/namespaces/inkscape"
        xmlns:sodipodi="http://sodipodi.sourceforge.net/DTD/sodipodi-0.dtd"
        xmlns="http://www.w3.org/2000/svg"
        xmlns:svg="http://www.w3.org/2000/svg">
    <defs
            id="defs2197" />
    <sodipodi:namedview
            id="namedview2195"
            pagecolor="#ffffff"
            bordercolor="#666666"
            borderopacity="1.0"
            inkscape:pageshadow="2"
            inkscape:pageopacity="0.0"
            inkscape:pagecheckerboard="0" />
    <inkscape:clipboard
            style="font-variation-settings:normal;opacity:1;vector-effect:none;fill:#484546;fill-opacity:1;stroke-width:1;stroke-linecap:butt;stroke-linejoin:miter;stroke-miterlimit:4;stroke-dasharray:none;stroke-dashoffset:0;stroke-opacity:1;-inkscape-stroke:none;stop-color:#000000;stop-opacity:1"
            min="21.984117,11.997466"
            max="41.747016,57.725724"
            geom-min="21.984117,11.997466"
            geom-max="41.747016,57.725724" />
    <g
            id="g2199"
            transform="translate(-21.984117,-11.997466)">
        <g
                id="g2115">
            <path
                    style="fill:#f3f3f3"
                    d="m 27.162706,56.588308 c -1.088529,-1.375109 -2.215233,-9.947265 -2.913935,-22.169698 -0.249003,-4.355833 -0.877697,-8.71375 -1.397098,-9.684258 -1.632119,-3.049643 -0.963428,-6.278718 2.023423,-9.771002 2.533136,-2.961793 3.29751,-3.297854 6.243815,-2.745124 1.846521,0.34641 4.354305,1.328158 5.572854,2.181663 2.28467,1.600244 3.01158,5.828408 1.195039,6.951092 -1.440376,0.890201 -0.106423,13.41442 1.742976,16.364464 1.972897,3.147037 2.849506,13.185598 1.389626,15.913408 -1.816985,3.395067 -11.820607,5.531598 -13.8567,2.959455 z"
                    id="path2173" />
            <path
                    style="fill:#ececec"
                    d="M 27.458259,55.588308 C 26.961945,53.982243 26.148682,48.075848 24.518556,34.238449 23.79936,28.133527 22.899224,22.634242 22.518252,22.017817 c -0.847761,-1.371706 1.45698,-6.026016 4.223978,-8.530114 1.768685,-1.600638 2.512612,-1.689803 5.599278,-0.671111 1.957779,0.646125 4.212855,2.107428 5.01128,3.247339 1.27106,1.814692 1.266361,2.430937 -0.03777,4.952839 -0.819196,1.58415 -1.245548,3.274911 -0.947449,3.757245 0.298099,0.482335 0.951068,3.506619 1.451042,6.720632 0.499974,3.214014 1.650276,7.837506 2.556226,10.274428 2.039413,5.485832 1.258179,11.447517 -1.778869,13.574748 -2.613643,1.83067 -10.593409,2.005835 -11.137709,0.244485 z"
                    id="path2171" />
            <path
                    style="fill:#e4e4e4"
                    d="m 27.454785,55.588308 c -0.516262,-1.655729 -1.459001,-9.199335 -2.530682,-20.25 -0.480045,-4.95 -1.143685,-10.8 -1.474754,-13 -0.508267,-3.377496 -0.199399,-4.446903 1.984677,-6.871646 2.200415,-2.442883 3.114067,-2.786054 6.119182,-2.298391 1.942909,0.315291 4.167407,1.100132 4.943331,1.744091 1.613378,1.338986 1.893625,5.509492 0.430966,6.413464 -1.461548,0.903286 -0.05884,12.33148 2.112076,17.207618 1.860786,4.179542 2.499339,12.813073 1.102415,14.90516 -2.094033,3.136104 -11.863511,4.791432 -12.687211,2.149704 z"
                    id="path2169" />
            <path
                    style="fill:#e0dfdf"
                    d="m 28.251322,55.69201 c -1.167456,-1.472859 -2.298664,-9.344335 -2.925026,-20.353702 -0.219041,-3.85 -0.919416,-8.941119 -1.556389,-11.313599 -1.022946,-3.810078 -0.930751,-4.618152 0.789819,-6.922669 2.748543,-3.681375 4.648783,-4.655936 7.622879,-3.909485 3.839478,0.963647 6.024684,3.537731 5.131613,6.044829 -1.355976,3.8066 -0.415187,15.366918 1.614479,19.838545 2.449462,5.396495 2.545114,11.841211 0.218392,14.71459 -2.16986,2.679664 -9.293535,3.922863 -10.895767,1.901491 z"
                    id="path2167" />
            <path
                    style="fill:#dbdada"
                    d="m 28.71323,55.588308 c -1.576173,-1.249868 -2.429503,-6.563906 -3.412333,-21.25 -0.257651,-3.85 -0.934178,-8.455435 -1.503393,-10.2343 -1.25623,-3.925869 -0.618298,-6.233055 2.545153,-9.204963 2.809346,-2.639244 7.220649,-2.203325 10.119624,1.000006 1.462978,1.616573 1.565097,2.380319 0.601144,4.495965 -1.513876,3.322595 -0.559155,12.553354 1.92673,18.628673 2.102972,5.139508 2.47959,10.895181 0.905387,13.836605 -0.556472,1.039777 -2.693972,2.357684 -4.75,2.928682 -4.672135,1.29754 -4.537676,1.301735 -6.432312,-0.200668 z"
                    id="path2165" />
            <path
                    style="fill:#d4d3d3"
                    d="m 27.613959,52.088308 c -0.276881,-2.0625 -1.017275,-8.475 -1.645319,-14.25 -0.628045,-5.775 -1.640176,-12.170464 -2.24918,-14.212141 -1.011787,-3.391999 -0.868007,-4.025846 1.667162,-7.349625 2.439515,-3.198368 3.151046,-3.562162 5.894093,-3.013553 1.715807,0.343162 4.013788,1.518069 5.106624,2.610905 1.713383,1.713382 1.807604,2.274192 0.684289,4.072906 -1.665752,2.667293 -0.681139,13.954248 1.647994,18.891508 0.908111,1.925 1.659341,5.898775 1.669399,8.830611 0.02192,6.388603 -1.736725,8.169389 -8.067806,8.169389 -4.101601,0 -4.216078,-0.0912 -4.707256,-3.75 z"
                    id="path2163" />
            <path
                    style="fill:#d0cfcf"
                    d="m 27.565957,51.088308 c -0.327695,-2.6125 -1.227844,-9.988074 -2.00033,-16.390164 -0.772485,-6.40209 -1.728095,-12.163721 -2.123577,-12.803624 -0.781358,-1.264264 3.181069,-7.721104 5.223943,-8.512501 1.729175,-0.669871 6.480592,1.203471 7.948464,3.133843 0.953832,1.254367 0.902081,2.177434 -0.246617,4.39877 -1.075115,2.079043 -1.194184,3.494021 -0.457148,5.432574 0.548139,1.441716 0.996617,4.189353 0.996617,6.105862 0,1.916508 0.722007,4.880768 1.60446,6.587244 0.882453,1.706476 1.669953,5.235936 1.75,7.843245 0.194742,6.343188 -2.104028,8.954751 -7.882218,8.954751 h -4.217783 z"
                    id="path2161" />
            <path
                    style="fill:#cccbcb"
                    d="m 28.44432,54.588308 c -0.497376,-1.553445 -1.156431,-6.181875 -2.883455,-20.25 -0.742707,-6.05 -1.679314,-11.755128 -2.08135,-12.678062 -0.507634,-1.165352 0.297783,-2.800631 2.636069,-5.352142 l 3.367042,-3.67408 3.826339,1.598747 c 3.591785,1.500743 3.785096,1.798179 3.153533,4.852142 -0.370044,1.789367 -0.691439,4.153395 -0.714212,5.253395 -0.07535,3.639836 1.764703,12.962667 3.011499,15.258059 0.674585,1.241933 1.321244,4.543792 1.437021,7.337465 0.177154,4.27471 -0.163499,5.382394 -2.150281,6.99194 -2.64798,2.145202 -8.987443,2.582614 -9.602205,0.662536 z"
                    id="path2159" />
            <path
                    style="fill:#c3c2c2"
                    d="m 28.44432,54.588308 c -0.554678,-1.732416 -1.32413,-7.591984 -2.462166,-18.75 -0.532911,-5.225 -1.279521,-11.205256 -1.659133,-13.289458 -0.573938,-3.151121 -0.300819,-4.203937 1.621357,-6.25 5.28884,-5.629712 13.521586,-1.10995 9.991815,5.485489 -1.149617,2.148077 0.404944,12.919721 2.555195,17.705098 0.778756,1.733121 1.415921,5.420104 1.415921,8.193296 0,4.076814 -0.425512,5.340207 -2.222506,6.598871 -2.661642,1.864287 -8.677849,2.063973 -9.240483,0.306704 z"
                    id="path2157" />
            <path
                    style="fill:#c1bfc0"
                    d="m 28.504374,54.717535 c -0.526592,-1.653124 -1.389732,-8.354901 -2.5603,-19.879227 -0.474857,-4.675 -1.168034,-10.075141 -1.540394,-12.000313 -1.334682,-6.900556 5.321119,-11.397312 10.57389,-7.143876 2.053888,1.663137 2.166317,2.158826 1.082905,4.774413 -1.465548,3.538147 -0.180723,14.482019 2.252657,19.187657 2.032149,3.929744 2.113008,12.506638 0.133396,14.14957 -2.304402,1.912484 -9.415644,2.564643 -9.942154,0.911776 z"
                    id="path2155" />
            <path
                    style="fill:#c0bebe"
                    d="m 28.504374,54.717535 c -0.526592,-1.653124 -1.389732,-8.354901 -2.5603,-19.879227 -0.474857,-4.675 -1.168034,-10.075141 -1.540394,-12.000313 -1.334682,-6.900556 5.321119,-11.397312 10.57389,-7.143876 2.053888,1.663137 2.166317,2.158826 1.082905,4.774413 -1.465548,3.538147 -0.180723,14.482019 2.252657,19.187657 1.918509,3.709988 2.087565,11.125111 0.309091,13.55732 -1.672825,2.287724 -9.497686,3.450896 -10.117849,1.504026 z"
                    id="path2153" />
            <path
                    style="fill:#b6b4b5"
                    d="m 29.16719,54.588308 c -1.071704,-1.360019 -2.165606,-8.531714 -2.859946,-18.75 -0.242924,-3.575 -0.937622,-8.681068 -1.543774,-11.346817 -0.976762,-4.295625 -0.877849,-5.148543 0.869769,-7.5 2.462099,-3.312804 6.200916,-3.842756 9.315827,-1.320453 2.128997,1.723956 2.255133,2.220252 1.169734,4.602443 -1.570349,3.446541 -0.660542,12.56244 1.871355,18.750208 1.934877,4.728697 2.506502,11.386123 1.151841,13.414915 -2.032939,3.044608 -8.219053,4.377798 -9.974806,2.149704 z"
                    id="path2151" />
            <path
                    style="fill:#b0aeaf"
                    d="m 29.236799,54.674511 c -1.106403,-1.396696 -2.193559,-8.809829 -2.909033,-19.836203 -0.231973,-3.575 -0.922099,-8.384437 -1.533613,-10.687637 -0.990604,-3.730998 -0.874063,-4.521572 1.06875,-7.25 2.533939,-3.55859 5.704947,-3.967576 9.147661,-1.179836 2.042947,1.654278 2.181853,2.196313 1.145656,4.470517 -1.583726,3.475902 -0.477393,14.775919 1.903947,19.446778 2.414831,4.736551 2.430266,11.362483 0.03152,13.533314 -2.558178,2.315119 -7.541536,3.161015 -8.854893,1.503067 z"
                    id="path2149" />
            <path
                    style="fill:#a8a7a7"
                    d="m 28.4858,50.588308 c -0.376666,-2.3375 -1.289303,-9.2 -2.028082,-15.25 -0.738779,-6.05 -1.648001,-11.938575 -2.020493,-13.085721 -0.480372,-1.479376 0.11417,-3.026281 2.04512,-5.321085 2.207074,-2.622959 3.214764,-3.116906 5.323672,-2.609546 3.603662,0.866968 5.299453,3.277569 4.005938,5.694523 -1.418846,2.651138 -0.0278,15.342116 2.225268,20.301852 3.756109,8.26842 1.579708,14.519977 -5.054949,14.519977 -3.710173,0 -3.829855,-0.113122 -4.496474,-4.25 z"
                    id="path2147" />
            <path
                    style="fill:#a09e9f"
                    d="m 28.503304,50.088308 c -0.365261,-2.6125 -1.276187,-9.7 -2.02428,-15.75 -0.748093,-6.05 -1.664542,-11.744839 -2.036552,-12.655198 -0.443178,-1.084515 0.332732,-2.784592 2.250439,-4.930879 2.81392,-3.149323 3.051573,-3.224008 6.160819,-1.936116 2.913329,1.20674 3.171433,1.646086 2.603027,4.430879 -0.859437,4.210636 -0.860227,5.254974 -0.0088,11.591314 0.40649,3.025 1.351129,6.715153 2.099197,8.20034 0.748099,1.485187 1.360155,5.181854 1.360155,8.214816 0,6.1096 -1.32341,7.584844 -6.804206,7.584844 -2.742351,0 -2.979426,-0.312826 -3.599799,-4.75 z"
                    id="path2145" />
            <path
                    style="fill:#999797"
                    d="m 28.901732,51.588308 c -0.0031,-1.7875 -0.423617,-4.825 -0.934555,-6.75 -0.510938,-1.925 -1.164417,-6.65 -1.452176,-10.5 -0.28776,-3.85 -0.809888,-9.025 -1.160285,-11.5 -0.559954,-3.955184 -0.333147,-4.783912 1.873349,-6.84502 2.30061,-2.149021 2.747337,-2.230113 5.344839,-0.970217 2.298375,1.114807 2.781437,1.936518 2.554325,4.34502 -0.504587,5.351084 -0.463864,6.903242 0.325854,12.420001 0.429072,2.997382 1.37903,6.597382 2.111018,8 0.731987,1.402619 1.333659,4.896883 1.337047,7.765032 0.0069,5.818411 -1.388004,7.285184 -6.928098,7.285184 -2.790974,0 -3.066241,-0.291281 -3.071318,-3.25 z"
                    id="path2143" />
            <path
                    style="fill:#878585"
                    d="m 29.500577,53.588308 c -0.882867,-3.20844 -2.593268,-16.196559 -2.593268,-19.692269 0,-2.147833 -0.520635,-6.160666 -1.156967,-8.917406 -0.994014,-4.306304 -0.920345,-5.373387 0.523053,-7.57629 1.875403,-2.862227 5.191145,-3.339499 8.153212,-1.173582 1.644824,1.202724 1.737791,1.749882 0.688582,4.052645 -1.52659,3.3505 -0.608795,12.293127 1.933978,18.843922 2.602162,6.703794 2.461286,12.177114 -0.364364,14.156276 -2.670279,1.870336 -6.706546,2.042649 -7.184226,0.306704 z"
                    id="path2141" />
            <path
                    style="fill:#807d7e"
                    d="M 30.505587,53.694377 C 29.05744,49.022668 27.840765,41.991278 27.383833,35.653182 c -0.290043,-4.023181 -1.033976,-9.261586 -1.653184,-11.6409 -1.057995,-4.065355 -0.967606,-4.484254 1.500088,-6.951948 2.261516,-2.261516 3.011062,-2.486825 5.401247,-1.623584 2.018108,0.728861 2.660065,1.534268 2.35288,2.951948 -1.071583,4.945415 0.04142,17.494438 1.918458,21.630555 2.257322,4.974074 2.553547,9.717358 0.753987,12.073192 -1.733156,2.268904 -6.606592,3.360517 -7.151722,1.601932 z"
                    id="path2139" />
            <path
                    style="fill:#7a7778"
                    d="m 29.07932,46.588308 c -0.674315,-3.9875 -1.617037,-10.85 -2.094937,-15.25 -0.477901,-4.4 -1.157454,-8.705574 -1.510119,-9.567942 -0.370886,-0.906926 0.273184,-2.730404 1.527746,-4.325322 1.736726,-2.207888 2.688708,-2.626929 4.77711,-2.102773 3.310064,0.830773 4.264301,2.373192 2.967399,4.796476 -1.274267,2.380989 -0.13682,14.743032 1.778249,19.326436 0.760397,1.819888 1.382541,5.525196 1.382541,8.234018 0,5.174523 -0.845747,6.139107 -5.382768,6.139107 -1.975455,0 -2.353849,-0.796279 -3.445221,-7.25 z"
                    id="path2137" />
            <path
                    style="fill:#706d6e"
                    d="m 29.901732,51.088308 c -0.0031,-1.5125 -0.418646,-4.325 -0.923508,-6.25 -0.504863,-1.925 -1.178139,-6.65 -1.496169,-10.5 -0.318031,-3.85 -0.845952,-9.028389 -1.173158,-11.507531 -0.497099,-3.766373 -0.249504,-4.820128 1.505808,-6.408664 1.779523,-1.610446 2.497976,-1.720135 4.698778,-0.717383 2.220869,1.011896 2.486178,1.579349 1.827471,3.908664 -1.300372,4.598364 -0.08142,15.883445 2.206231,20.425254 1.681711,3.338806 1.778831,10.980953 0.160124,12.59966 -0.66,0.66 -2.46,1.2 -4,1.2 -2.386527,0 -2.800824,-0.40609 -2.805577,-2.75 z"
                    id="path2135" />
            <path
                    style="fill:#676465"
                    d="m 30.454941,52.588308 c -0.21428,-0.6875 -0.890484,-5.075 -1.502676,-9.75 -0.612192,-4.675 -1.584547,-11.806828 -2.160789,-15.848506 -0.984854,-6.90763 -0.918656,-7.48588 1.103391,-9.63825 1.349619,-1.436603 2.876262,-2.100111 4.097356,-1.780787 2.777589,0.726355 3.26823,2.000764 1.973596,5.126287 -1.245759,3.007527 0.592064,16.751313 2.788884,20.856109 1.648709,3.080641 1.422288,8.872608 -0.418823,10.713718 -1.880901,1.880902 -5.336026,2.069745 -5.880939,0.321429 z"
                    id="path2133" />
            <path
                    style="fill:#625f60"
                    d="m 30.788888,52.588308 c -0.06513,-0.6875 -0.0476,-1.640108 0.03897,-2.116907 0.08657,-0.4768 -0.298757,-2.2768 -0.856271,-4 -0.557515,-1.723201 -1.285114,-6.508093 -1.616886,-10.633093 -0.331773,-4.125 -1.045529,-9.22472 -1.586124,-11.332711 -1.566544,-6.108567 2.495795,-10.628254 6.991977,-7.77915 1.065085,0.674914 1.106266,1.318998 0.193393,3.024717 -1.570044,2.933655 -0.364785,15.326377 2.031253,20.885763 2.761852,6.408161 0.822374,13.201381 -3.769021,13.201381 -0.719878,0 -1.362159,-0.5625 -1.427291,-1.25 z"
                    id="path2131" />
            <path
                    style="fill:#605d5e"
                    d="M 31.615459,53.088308 C 30.510104,51.065743 26.544222,24.679999 26.71857,20.508403 c 0.165369,-3.956761 4.371286,-6.087548 6.941935,-3.516899 0.81586,0.81586 0.851591,1.716748 0.122151,3.079721 -1.389443,2.596197 -0.10469,16.299116 1.942191,20.715025 1.933862,4.172085 1.644683,10.091561 -0.576557,11.802058 -1.852743,1.426732 -2.942102,1.580908 -3.532831,0.5 z"
                    id="path2129" />
            <path
                    style="fill:#5c595a"
                    d="M 30.193019,46.588308 C 27.672553,33.128846 26.558749,18.963224 27.894394,17.35387 c 2.623492,-3.161115 7.801257,-0.857109 5.930273,2.638857 -1.399923,2.615779 -0.0079,19.525581 1.72585,20.964433 1.38555,1.149905 1.844044,7.447815 0.749803,10.299361 -0.333844,0.869983 -1.58122,1.581787 -2.771946,1.581787 -1.864172,0 -2.327565,-0.868335 -3.335355,-6.25 z"
                    id="path2127" />
            <path
                    style="fill:#545152"
                    d="M 30.518663,47.588308 C 27.043476,20.244219 26.989716,19.446094 28.485305,17.400756 c 1.89741,-2.594864 5.864726,-1.145622 4.883599,1.783956 -0.758863,2.265913 -0.766623,3.07923 -0.132832,13.922593 0.25761,4.407372 0.967054,7.400396 2.033442,8.578741 1.959233,2.164929 2.08027,4.800773 0.387795,8.445095 -2.117592,4.559706 -4.378144,3.441084 -5.138646,-2.542833 z"
                    id="path2125" />
            <path
                    style="fill:#524f50"
                    d="m 31.090128,46.178761 c -2.723089,-15.891845 -3.445803,-27.877306 -1.76509,-29.272174 1.893009,-1.571058 4.87429,-0.22089 3.998312,1.810763 -1.392329,3.229228 -1.599347,7.037735 -0.559632,10.295565 0.631084,1.977432 0.734985,4.744132 0.256321,6.825393 -0.681976,2.96528 -0.431676,3.905799 1.638333,6.156148 2.62978,2.858887 2.506633,4.671142 -0.590117,8.684305 l -1.806006,2.340453 z"
                    id="path2123" />
            <path
                    style="fill:#504d4e"
                    d="M 31.167483,46.13277 C 30.568899,43.51695 30.214396,39.343089 30.379698,36.857521 30.557725,34.180636 30.099347,31.411464 29.255302,30.064768 27.7558,27.672273 27.687034,19.213273 29.150651,17.191543 c 1.311072,-1.811015 5.028914,-0.426154 4.102619,1.528187 -0.421935,0.890218 -0.784886,6.118578 -0.806558,11.618578 -0.03675,9.326019 0.121746,10.139491 2.351598,12.069659 2.215038,1.917345 2.288632,2.279881 1,4.926158 -2.124136,4.362033 -3.435598,4.021806 -4.630827,-1.201355 z"
                    id="path2121" />
            <path
                    style="fill:#4d4a4a"
                    d="m 31.975013,46.964815 c -1.257186,-2.349075 -1.416776,-6.126507 -0.258834,-6.126507 2.09247,0 4.355057,2.790437 4.0361,4.9777 -0.449009,3.079094 -2.422916,3.679433 -3.777266,1.148807 z M 29.990642,29.921641 c -2.20161,-2.20161 -2.794213,-6.525951 -1.042656,-7.608473 0.572373,-0.353746 0.766345,-1.50752 0.431049,-2.563943 -0.659818,-2.078903 1.59529,-3.605567 3.54553,-2.400252 0.782555,0.483645 0.67885,1.178013 -0.349277,2.338612 -1.120906,1.265332 -1.278059,2.818062 -0.673128,6.650723 0.434048,2.75 0.650272,5.15 0.480497,5.333333 -0.169775,0.183334 -1.246181,-0.604166 -2.392015,-1.75 z"
                    id="path2119" />
            <path
                    style="fill:#484546"
                    d="m 31.882558,45.273208 c -1.261527,-3.318067 -1.244875,-3.4349 0.489567,-3.4349 1.715399,0 3.463116,2.947276 2.816723,4.75 -0.731296,2.03951 -2.262416,1.430496 -3.30629,-1.3151 z M 29.573976,29.171641 c -0.990461,-0.990461 -0.807649,-6.333333 0.216702,-6.333333 0.869034,0 2.076221,3.300714 2.102976,5.75 0.01473,1.348032 -1.239562,1.66345 -2.319678,0.583333 z m 0.972813,-10.027186 c -1.126184,-1.126184 -0.68589,-2.306147 0.86052,-2.306147 0.825,0 1.5,0.423442 1.5,0.940983 0,1.260978 -1.561589,2.164095 -2.36052,1.365164 z"
                    id="path2117" />
        </g>
    </g>
</svg>
