<?xml version="1.0" encoding="UTF-8" standalone="no"?>
<!-- Created with Inkscape (http://www.inkscape.org/) -->

<svg
   width="17.11685mm"
   height="17.11685mm"
   viewBox="0 0 17.11685 17.11685"
   version="1.1"
   id="svg2326"
   inkscape:version="1.1 (ce6663b3b7, 2021-05-25)"
   sodipodi:docname="pokou_FAVTEST.svg"
   xmlns:inkscape="http://www.inkscape.org/namespaces/inkscape"
   xmlns:sodipodi="http://sodipodi.sourceforge.net/DTD/sodipodi-0.dtd"
   xmlns:xlink="http://www.w3.org/1999/xlink"
   xmlns="http://www.w3.org/2000/svg"
   xmlns:svg="http://www.w3.org/2000/svg">
  <sodipodi:namedview
     id="namedview2328"
     pagecolor="#ffffff"
     bordercolor="#666666"
     borderopacity="1.0"
     inkscape:pageshadow="2"
     inkscape:pageopacity="0.0"
     inkscape:pagecheckerboard="0"
     inkscape:document-units="mm"
     showgrid="false"
     inkscape:zoom="14.008503"
     inkscape:cx="28.447008"
     inkscape:cy="16.597062"
     inkscape:window-width="2488"
     inkscape:window-height="1536"
     inkscape:window-x="3912"
     inkscape:window-y="27"
     inkscape:window-maximized="1"
     inkscape:current-layer="layer10" />
  <defs
     id="defs2323">
    <inkscape:path-effect
       effect="powerclip"
       id="path-effect25119"
       is_visible="true"
       lpeversion="1"
       inverse="true"
       flatten="false"
       hide_clip="false"
       message="Utilise la règle de remplissage « fill-rule: evenodd » de la boîte de dialogue &lt;b&gt;Fond et contour&lt;/b&gt; en l'absence de résultat de mise à plat après une conversion en chemin." />
    <linearGradient
       id="linearGradient12539"
       inkscape:swatch="solid">
      <stop
         style="stop-color:#000000;stop-opacity:1;"
         offset="0"
         id="stop12537" />
    </linearGradient>
    <linearGradient
       id="linearGradient7930"
       inkscape:swatch="solid">
      <stop
         style="stop-color:#000080;stop-opacity:1;"
         offset="0"
         id="stop7928" />
    </linearGradient>
    <clipPath
       clipPathUnits="userSpaceOnUse"
       id="clipPath23605">
      <use
         x="0"
         y="0"
         xlink:href="#g23601"
         id="use23607"
         width="100%"
         height="100%" />
    </clipPath>
    <clipPath
       clipPathUnits="userSpaceOnUse"
       id="clipPath25097">
      <use
         x="0"
         y="0"
         xlink:href="#g25093"
         id="use25099"
         width="100%"
         height="100%" />
    </clipPath>
    <clipPath
       clipPathUnits="userSpaceOnUse"
       id="clipPath25101">
      <g
         id="g25117"
         clip-path="url(#clipPath25097)"
         transform="matrix(1.1688038,0,0,1.1688038,-4.4529143,-1.2093982)"
         style="display:none">
        <g
           inkscape:label="Clip"
           id="g25115">
          <circle
             style="display:inline;opacity:1;fill:#d40000;fill-opacity:1;stroke-width:0.27664;paint-order:stroke fill markers"
             id="circle25103"
             r="1.5668538"
             cy="9.0299816"
             cx="18.061369" />
          <circle
             style="display:inline;opacity:1;fill:#d40000;fill-opacity:1;stroke-width:0.264583;paint-order:stroke fill markers"
             id="circle25105"
             r="3.0950482"
             cy="15.835764"
             cx="17.617537" />
          <circle
             style="display:inline;opacity:1;fill:#000000;fill-opacity:1;stroke-width:0.264583;paint-order:stroke fill markers"
             id="circle25107"
             cx="17.604219"
             cy="15.836294"
             r="0.96289521" />
          <g
             id="g25113"
             clip-path="url(#clipPath23605)"
             transform="translate(1.9907325,-0.85727842)"
             style="display:inline;opacity:1">
            <g
               inkscape:label="Clip"
               id="g25111">
              <circle
                 style="fill:#d40000;fill-opacity:1;stroke-width:0.27664;paint-order:stroke fill markers"
                 id="circle25109"
                 cx="9.2465534"
                 cy="9.8872604"
                 r="1.5668538" />
            </g>
          </g>
        </g>
      </g>
      <path
         id="lpe_path-effect25119"
         class="powerclip"
         d="M -2.407794,-1.90277 H 27.598445 V 28.103469 H -2.407794 Z M 19.628223,9.0299816 a 1.5668538,1.5668538 0 0 0 -1.566854,-1.5668537 1.5668538,1.5668538 0 0 0 -1.566854,1.5668537 1.5668538,1.5668538 0 0 0 1.566854,1.5668534 1.5668538,1.5668538 0 0 0 1.566854,-1.5668534 z m 1.084362,6.8057824 a 3.0950482,3.0950482 0 0 0 -3.095048,-3.095048 3.0950482,3.0950482 0 0 0 -3.095049,3.095048 3.0950482,3.0950482 0 0 0 3.095049,3.095048 3.0950482,3.0950482 0 0 0 3.095048,-3.095048 z m -2.14547,5.3e-4 a 0.96289521,0.96289521 0 0 0 -0.962896,-0.962895 0.96289521,0.96289521 0 0 0 -0.962895,0.962895 0.96289521,0.96289521 0 0 0 0.962895,0.962895 0.96289521,0.96289521 0 0 0 0.962896,-0.962895 z M 10.813407,9.8872604 A 1.5668538,1.5668538 0 0 0 9.2465534,8.3204067 1.5668538,1.5668538 0 0 0 7.6796997,9.8872604 1.5668538,1.5668538 0 0 0 9.2465534,11.454114 1.5668538,1.5668538 0 0 0 10.813407,9.8872604 Z" />
    </clipPath>
  </defs>
  <g
     inkscape:groupmode="layer"
     id="layer8"
     inkscape:label="bouche"
     style="display:none;opacity:1"
     transform="translate(-102.87446,-111.42043)">
    <circle
       style="fill:#ff0000;stroke-width:0.264583"
       id="path2931"
       cx="112.46416"
       cy="124.42555"
       r="3.1161885"
       clip-path="none" />
    <circle
       style="fill:#ffffff;stroke-width:0.28631"
       id="path3141"
       cx="112.45517"
       cy="124.43014"
       r="1.0000764"
       clip-path="none" />
    <path
       style="fill:#000000;stroke-width:0.0658816"
       d="m 424.39271,473.98193 c -0.77947,-0.13903 -1.72967,-0.68264 -2.20148,-1.2595 -0.54069,-0.66106 -0.91146,-1.63421 -0.91146,-2.39226 0,-0.98173 0.41175,-1.96608 1.11771,-2.67204 1.68009,-1.68009 4.40608,-1.41046 5.72842,0.5666 0.45085,0.67408 0.62642,1.25684 0.62394,2.07093 -0.003,1.004 -0.31446,1.78411 -1.00536,2.51862 -0.48014,0.51045 -0.97697,0.83467 -1.5813,1.03194 -0.49548,0.16173 -1.28516,0.22226 -1.77047,0.13571 z"
       id="path3453"
       transform="scale(0.26458333)"
       clip-path="none" />
    <path
       style="fill:#000080;fill-opacity:0;stroke-width:0.131763"
       d="m 422.56446,481.7151 c -2.16649,-0.47645 -4.03093,-1.52519 -5.72731,-3.22157 -1.33075,-1.33075 -1.86061,-2.10734 -2.57551,-3.77477 -1.07335,-2.50352 -1.1536,-5.87951 -0.20031,-8.4274 1.49581,-3.99791 4.86597,-6.81109 9.05684,-7.56004 1.16362,-0.20795 3.74798,-0.10465 4.84047,0.19348 4.19407,1.14451 7.30704,4.25773 8.44654,8.44724 0.29572,1.08723 0.39763,3.51371 0.19923,4.74356 -0.72402,4.4882 -3.92413,8.08551 -8.38994,9.43134 -1.22911,0.37041 -4.31301,0.46219 -5.65001,0.16816 z m 4.21782,-8.02145 c 0.82784,-0.40502 1.29678,-0.91368 1.74869,-1.89681 0.27999,-0.6091 0.31622,-0.84389 0.2643,-1.71292 -0.072,-1.20448 -0.36555,-1.84892 -1.18749,-2.60656 -0.83947,-0.77379 -1.57555,-1.01762 -2.84947,-0.94387 -1.53514,0.0889 -2.48708,0.71988 -3.20299,2.12319 -1.02947,2.01794 0.25449,4.80045 2.4703,5.35345 0.81886,0.20436 1.95983,0.0734 2.75666,-0.31648 z"
       id="path4105"
       transform="scale(0.26458333)" />
  </g>
  <g
     inkscape:label="model"
     inkscape:groupmode="layer"
     id="layer1"
     style="display:none;opacity:0.655712"
     transform="translate(-102.87446,-111.42043)">
    <g
       id="g2410"
       transform="matrix(0.26458333,0,0,0.26458333,96.281136,107.1704)">
      <g
         id="g2393">
        <path
           d="m 61.1309,61.4521 a 3.7854,3.7854 0 1 0 3.7861,3.7852 3.79,3.79 0 0 0 -3.7861,-3.7852 z"
           id="path2389" />
        <path
           d="M 50,2 A 48,48 0 1 0 98,50 48,48 0 0 0 50,2 Z m 12.9167,31.5125 a 6,6 0 1 1 -6,6 6,6 0 0 1 6,-6 z m -25.8334,12 a 6,6 0 1 1 6,-6 6,6 0 0 1 -6,6 z m 24.0476,31.51 A 11.7854,11.7854 0 1 1 72.917,65.2373 11.799,11.799 0 0 1 61.1309,77.0229 Z"
           id="path2391" />
      </g>
      <text
         x="0"
         y="115"
         fill="#000000"
         font-size="5px"
         font-weight="bold"
         font-family="'Helvetica Neue', Helvetica, Arial-Unicode, Arial, Sans-serif"
         id="text2395">Created by Maciej Świerczek</text>
      <text
         x="0"
         y="120"
         fill="#000000"
         font-size="5px"
         font-weight="bold"
         font-family="'Helvetica Neue', Helvetica, Arial-Unicode, Arial, Sans-serif"
         id="text2397">from the Noun Project</text>
    </g>
  </g>
  <g
     inkscape:groupmode="layer"
     id="layer6"
     inkscape:label="tete"
     style="display:none;opacity:1"
     transform="translate(-102.87446,-111.42043)">
    <circle
       style="fill:#ff0000;fill-opacity:0;stroke-width:0.264583"
       id="path2435"
       cx="109.50361"
       cy="120.38984"
       r="12.667514"
       clip-path="none" />
    <path
       style="fill:#000000;stroke-width:0.0658816"
       d="m 410.87048,502.76983 c -8.45725,-0.58629 -16.34322,-3.22729 -23.29857,-7.80267 -9.03481,-5.9433 -15.78094,-14.7677 -19.15917,-25.06151 -2.7748,-8.45512 -3.12867,-17.54688 -1.0199,-26.20368 2.37966,-9.76882 7.76019,-18.5083 15.43933,-25.07775 7.35289,-6.29036 16.57608,-10.22761 26.2595,-11.20983 3.26077,-0.33074 7.24521,-0.29321 10.47518,0.0987 17.51434,2.12503 32.41974,13.66236 38.85133,30.07238 1.76139,4.49412 2.81024,9.16002 3.19148,14.19748 0.10589,1.39919 0.10593,5.05639 0,6.45639 -0.67583,8.93778 -3.56202,17.09379 -8.57944,24.24443 -5.63558,8.0316 -13.54829,14.09917 -22.79666,17.4808 -4.32058,1.5798 -8.67401,2.48639 -13.48846,2.80894 -1.15092,0.0771 -4.74179,0.0749 -5.87469,-0.004 z m 16.0751,-20.84654 c 4.31919,-0.70455 7.92306,-3.75551 9.29133,-7.86583 1.90742,-5.72994 -0.70896,-11.89311 -6.14106,-14.46599 -3.23024,-1.52998 -7.11243,-1.48415 -10.31452,0.12175 -4.86089,2.43783 -7.41403,7.82277 -6.23317,13.14664 1.09382,4.93147 5.21374,8.59448 10.30099,9.15858 0.73515,0.0815 2.31007,0.0331 3.09643,-0.0951 z m -24.475,-31.5221 c 2.07341,-0.53056 3.71407,-2.13691 4.31997,-4.22962 0.20088,-0.69381 0.2475,-2.01803 0.0972,-2.75992 -0.23237,-1.14677 -0.76733,-2.17044 -1.57525,-3.01429 -0.74397,-0.77706 -1.76989,-1.37913 -2.8419,-1.66779 -0.7539,-0.20301 -2.21078,-0.20301 -2.96468,0 -2.26204,0.6091 -3.98776,2.43478 -4.4197,4.67573 -0.10986,0.56996 -0.12171,1.67008 -0.0239,2.22208 0.22354,1.26208 0.81723,2.3673 1.75162,3.26081 0.93554,0.89461 2.04059,1.44644 3.28496,1.64042 0.58791,0.0916 1.76217,0.0286 2.37174,-0.12742 z m 25.78064,9e-4 c 1.81666,-0.44612 3.38819,-1.80853 4.09798,-3.55269 0.57683,-1.41743 0.57683,-3.14356 0,-4.56099 -0.71512,-1.75726 -2.27907,-3.10546 -4.13201,-3.56199 -0.76942,-0.18957 -2.0001,-0.20285 -2.74677,-0.0296 -2.24875,0.52167 -3.98015,2.21567 -4.53375,4.43581 -0.203,0.8141 -0.203,2.0585 0,2.87261 0.54187,2.17309 2.26009,3.89756 4.37496,4.39089 0.3008,0.0702 0.63585,0.14167 0.74455,0.15889 0.41269,0.0654 1.65987,-0.0215 2.19504,-0.1529 z"
       id="path3297"
       clip-path="none"
       transform="scale(0.26458333)" />
    <path
       style="display:inline;fill:#000000;stroke-width:0.0174312"
       d="m 112.28724,125.40772 c -0.20624,-0.0368 -0.45764,-0.18062 -0.58248,-0.33325 -0.14305,-0.1749 -0.24115,-0.43238 -0.24115,-0.63295 0,-0.25975 0.10894,-0.52019 0.29572,-0.70697 0.44453,-0.44453 1.16578,-0.37319 1.51565,0.14991 0.11929,0.17835 0.16574,0.33254 0.16508,0.54793 -7.9e-4,0.26564 -0.0832,0.47205 -0.266,0.66639 -0.12704,0.13505 -0.25849,0.22084 -0.41838,0.27303 -0.1311,0.0428 -0.34004,0.0588 -0.46844,0.0359 z"
       id="path3453-6"
       clip-path="none" />
  </g>
  <g
     inkscape:groupmode="layer"
     id="layer7"
     inkscape:label="yeux"
     style="display:none"
     transform="translate(-6.027633,-3.684646)">
    <circle
       style="fill:#ff0000;stroke-width:0.273855"
       id="path2744"
       cx="106.09407"
       cy="117.6259"
       r="1.5844235"
       clip-path="none" />
    <circle
       style="fill:#ff0000;stroke-width:0.273855"
       id="circle2906"
       cx="112.91872"
       cy="117.6259"
       r="1.5844235"
       clip-path="none" />
    <path
       style="fill:#000080;stroke-width:0.131763"
       d="m 399.13255,450.16635 c -1.6071,-0.56793 -2.75985,-1.60801 -3.50213,-3.15983 -0.45388,-0.94888 -0.4727,-1.04592 -0.4727,-2.43761 0,-1.3917 0.0188,-1.48874 0.4727,-2.43762 0.75746,-1.58355 1.9151,-2.6121 3.56865,-3.17071 0.6844,-0.23121 1.05828,-0.27225 2.08564,-0.22893 1.09,0.046 1.37093,0.11016 2.17409,0.49689 2.36556,1.13903 3.77438,3.73987 3.35918,6.20144 -0.33009,1.95701 -1.57768,3.62086 -3.35918,4.47997 -0.82646,0.39855 -1.05932,0.44912 -2.23997,0.48641 -1.06926,0.0338 -1.46253,-0.01 -2.08628,-0.23001 z"
       id="path3988"
       transform="scale(0.26458333)" />
    <path
       style="fill:#000080;stroke-width:0.131763"
       d="m 424.78344,450.11701 c -3.72702,-1.38519 -5.07771,-5.93648 -2.69586,-9.08398 2.39576,-3.16586 7.09314,-3.12533 9.45393,0.0816 2.3034,3.12895 0.89055,7.66866 -2.80401,9.00971 -1.16554,0.42307 -2.8042,0.42003 -3.95406,-0.007 z"
       id="path4027"
       transform="scale(0.26458333)" />
    <path
       style="fill:#000080;stroke-width:0.131763"
       d="m 422.56446,481.7151 c -2.16649,-0.47645 -4.03093,-1.52519 -5.72731,-3.22157 -1.33075,-1.33075 -1.86061,-2.10734 -2.57551,-3.77477 -1.07812,-2.51464 -1.15383,-5.86501 -0.19111,-8.45755 1.714,-4.61572 6.0569,-7.65953 10.92857,-7.65953 3.19841,0 6.10561,1.19302 8.31174,3.41087 2.27764,2.28974 3.41816,5.04674 3.41816,8.26278 0,5.1865 -3.25508,9.57586 -8.30108,11.1937 -0.96183,0.30837 -1.38979,0.36543 -3.03055,0.404 -1.3773,0.0324 -2.16801,-0.0117 -2.83291,-0.15793 z m 4.21782,-8.02145 c 0.82784,-0.40502 1.29678,-0.91368 1.74869,-1.89681 0.27999,-0.6091 0.31622,-0.84389 0.2643,-1.71292 -0.072,-1.20448 -0.36555,-1.84892 -1.18749,-2.60656 -0.83947,-0.77379 -1.57555,-1.01762 -2.84947,-0.94387 -1.53514,0.0889 -2.48708,0.71988 -3.20299,2.12319 -1.02947,2.01794 0.25449,4.80045 2.4703,5.35345 0.81886,0.20436 1.95983,0.0734 2.75666,-0.31648 z"
       id="path4066"
       transform="scale(0.26458333)" />
  </g>
  <g
     inkscape:groupmode="layer"
     id="layer10"
     inkscape:label="select"
     style="display:inline;opacity:1"
     transform="translate(-6.027633,-3.684646)">
    <g
       id="g23058"
       transform="matrix(0.8555756,0,0,0.8555756,3.8098048,1.0347316)"
       clip-path="url(#clipPath25101)"
       inkscape:path-effect="#path-effect25119">
      <circle
         style="fill:#000000;fill-opacity:1;stroke-width:0.264583;paint-order:stroke fill markers"
         id="path8909"
         cx="12.595325"
         cy="13.100349"
         r="10.003119"
         d="M 22.598445,13.100349 A 10.003119,10.003119 0 0 1 12.595325,23.103469 10.003119,10.003119 0 0 1 2.592206,13.100349 10.003119,10.003119 0 0 1 12.595325,3.09723 10.003119,10.003119 0 0 1 22.598445,13.100349 Z" />
    </g>
  </g>
  <g
     inkscape:groupmode="layer"
     id="layer11"
     inkscape:label="DECOUPE FAV"
     transform="translate(-6.027633,-3.684646)" />
</svg>
