<?xml version="1.0" encoding="UTF-8"?>
<!-- Created with Inkscape (http://www.inkscape.org/) -->
<svg width="209.87mm" height="34.596mm" version="1.1" viewBox="0 0 209.87 34.596" xmlns="http://www.w3.org/2000/svg"><g transform="translate(-75.918 -98.444)"><text transform="matrix(.26458 0 0 .26458 96.847 107.74)" fill="#000000" font-family="sans-serif" font-size="40px" style="line-height:1.25;shape-inside:url(#rect2830);white-space:pre" xml:space="preserve"/><text transform="matrix(.26458 0 0 .26458 96.847 107.74)" fill="#000000" font-family="sans-serif" font-size="40px" style="line-height:1.25;shape-inside:url(#rect70256);white-space:pre" xml:space="preserve"/><g><g transform="translate(96.847 107.74)" stroke-width=".35009" aria-label="POKOÙ WEB"><path d="m-2.0996 8.3059q0 2.1469-0.98545 3.9418-0.98545 1.7597-3.0267 2.8508-2.0413 1.091-5.068 1.091h-3.7306v8.8691h-6.0183v-24.707h9.7489q2.9564 0 4.9976 1.0206 2.0413 1.0206 3.0619 2.8156 1.0206 1.7949 1.0206 4.1178zm-9.5378 3.0971q1.7245 0 2.5692-0.80948 0.84467-0.80948 0.84467-2.2877 0-1.4782-0.84467-2.2877-0.84467-0.80948-2.5692-0.80948h-3.2731v6.1943z"/><path d="m12.717 25.305q-3.4843 0-6.4054-1.619-2.886-1.619-4.6105-4.5049-1.6893-2.9212-1.6893-6.5462 0-3.6251 1.6893-6.511 1.7245-2.886 4.6105-4.5049 2.9212-1.619 6.4054-1.619 3.4843 0 6.3702 1.619 2.9212 1.619 4.5753 4.5049 1.6893 2.886 1.6893 6.511 0 3.6251-1.6893 6.5462-1.6893 2.886-4.5753 4.5049t-6.3702 1.619zm0-5.4904q2.9564 0 4.7161-1.9709 1.7949-1.9709 1.7949-5.2088 0-3.2731-1.7949-5.2088-1.7597-1.9709-4.7161-1.9709-2.9915 0-4.7865 1.9357-1.7597 1.9357-1.7597 5.244 0 3.2731 1.7597 5.244 1.7949 1.9357 4.7865 1.9357z" fill="none"/><path d="m43.02 25.059-8.3059-10.91v10.91h-6.0183v-24.707h6.0183v10.84l8.2356-10.84h7.0741l-9.573 12.107 9.9249 12.6z"/><path d="m64.911 25.305q-3.4843 0-6.4054-1.619-2.886-1.619-4.6105-4.5049-1.6893-2.9212-1.6893-6.5462 0-3.6251 1.6893-6.511 1.7245-2.886 4.6105-4.5049 2.9212-1.619 6.4054-1.619 3.4843 0 6.3702 1.619 2.9212 1.619 4.5753 4.5049 1.6893 2.886 1.6893 6.511 0 3.6251-1.6893 6.5462-1.6893 2.886-4.5753 4.5049t-6.3702 1.619zm0-5.4904q2.9564 0 4.7161-1.9709 1.7949-1.9709 1.7949-5.2088 0-3.2731-1.7949-5.2088-1.7597-1.9709-4.7161-1.9709-2.9915 0-4.7865 1.9357-1.7597 1.9357-1.7597 5.244 0 3.2731 1.7597 5.244 1.7949 1.9357 4.7865 1.9357z"/><path d="m86.802 0.35195v14.782q0 2.2173 1.091 3.4139t3.2027 1.1966 3.2379-1.1966 1.1262-3.4139v-14.782h6.0183v14.747q0 3.3083-1.4078 5.596-1.4078 2.2877-3.801 3.4491-2.358 1.1614-5.2792 1.1614t-5.244-1.1262q-2.2877-1.1614-3.6251-3.4491-1.3374-2.3228-1.3374-5.6312v-14.747zm8.4115-5.5608v4.153l-8.4819-3.5547v-4.6809z"/><path d="m147.16 0.35195-6.4406 24.707h-7.2853l-3.9418-16.26-4.0826 16.26h-7.2853l-6.2647-24.707h6.4406l3.5547 17.984 4.3993-17.984h6.6166l4.2234 17.984 3.5899-17.984z"/><path d="m156.21 5.1736v4.9976h8.0596v4.6457h-8.0596v5.42h9.1154v4.8217h-15.134v-24.707h15.134v4.8217z"/><path d="m184.19 12.389q2.1469 0.45753 3.4491 2.1469 1.3022 1.6542 1.3022 3.801 0 3.0971-2.1821 4.9273-2.1469 1.7949-6.0183 1.7949h-11.509v-24.707h11.122q3.7658 0 5.8775 1.7245 2.1469 1.7245 2.1469 4.6809 0 2.1821-1.1614 3.6251-1.1262 1.443-3.0268 2.0061zm-8.9394-2.0413h3.9418q1.4782 0 2.2525-0.6335 0.80948-0.6687 0.80948-1.9357 0-1.267-0.80948-1.9357-0.77428-0.6687-2.2525-0.6687h-3.9418zm4.4345 9.8545q1.5134 0 2.3228-0.6687 0.84468-0.70389 0.84468-2.0061t-0.87987-2.0413q-0.84467-0.73909-2.358-0.73909h-4.3641v5.4552z"/></g><path d="m122.17 120.39a12.668 12.668 0 0 1-12.668 12.668 12.668 12.668 0 0 1-12.668-12.668 12.668 12.668 0 0 1 12.668-12.668 12.668 12.668 0 0 1 12.668 12.668z" fill-opacity="0" stroke-width=".26458"/><path d="m112.29 125.41c-0.20624-0.0368-0.45764-0.18062-0.58248-0.33325-0.14305-0.1749-0.24115-0.43238-0.24115-0.63295 0-0.25975 0.10894-0.52019 0.29572-0.70697 0.44453-0.44453 1.1658-0.37319 1.5156 0.14991 0.11929 0.17835 0.16574 0.33254 0.16508 0.54793-7.9e-4 0.26564-0.0832 0.47205-0.266 0.66639-0.12704 0.13505-0.25849 0.22084-0.41838 0.27303-0.1311 0.0428-0.34004 0.0588-0.46844 0.0359z" stroke-width=".017431"/><path d="m108.71 133.02c-2.2376-0.15512-4.3241-0.85388-6.1644-2.0645-2.3905-1.5725-4.1754-3.9074-5.0692-6.631-0.73417-2.2371-0.82779-4.6427-0.26985-6.9331 0.62962-2.5847 2.0532-4.897 4.085-6.6352 1.9454-1.6643 4.3858-2.7061 6.9478-2.966 0.86274-0.0875 1.917-0.0776 2.7716 0.0261 4.634 0.56226 8.5777 3.6149 10.279 7.9568 0.46603 1.1891 0.74354 2.4236 0.84441 3.7565 0.028 0.3702 0.028 1.3379 0 1.7083-0.17881 2.3648-0.94245 4.5228-2.27 6.4148-1.4911 2.125-3.5846 3.7305-6.0316 4.6252-1.1432 0.41799-2.295 0.65786-3.5688 0.74322-0.30452 0.0204-1.2546 0.0198-1.5544-1e-3zm4.2532-5.5157c1.1428-0.18643 2.0963-0.99367 2.4583-2.0812 0.50468-1.5161-0.18757-3.1468-1.6248-3.8275-0.85467-0.40481-1.8818-0.39268-2.729 0.0322-1.2861 0.64502-1.9616 2.0698-1.6492 3.4784 0.28941 1.3048 1.3795 2.274 2.7255 2.4232 0.19451 0.0216 0.61121 9e-3 0.81926-0.0252zm-6.4757-8.3403c0.54859-0.14038 0.98268-0.5654 1.143-1.1191 0.0532-0.18356 0.0655-0.53395 0.0257-0.73023-0.0615-0.30342-0.20303-0.57427-0.41679-0.79755-0.19684-0.2056-0.46828-0.3649-0.75192-0.44128-0.19947-0.0537-0.58493-0.0537-0.7844 0-0.5985 0.16118-1.0551 0.64423-1.1694 1.2371-0.0291 0.15082-0.0322 0.4419-6e-3 0.58793 0.0592 0.33393 0.21623 0.62636 0.46345 0.86277 0.24753 0.2367 0.53991 0.38271 0.86915 0.43404 0.15555 0.0242 0.46624 8e-3 0.62752-0.0337zm6.8211 2.5e-4c0.48066-0.11805 0.89646-0.47852 1.0843-0.94001 0.15262-0.37503 0.15262-0.83174 0-1.2068-0.18921-0.46494-0.603-0.82165-1.0933-0.94244-0.20358-0.0502-0.52919-0.0537-0.72675-8e-3 -0.59498 0.13802-1.0531 0.58623-1.1996 1.1737-0.0537 0.2154-0.0537 0.54466 0 0.76006 0.14337 0.57496 0.59798 1.0312 1.1575 1.1618 0.0796 0.0186 0.16823 0.0376 0.19699 0.0421 0.10919 0.0173 0.43918-6e-3 0.58077-0.0405z" stroke-width=".017431"/></g></g></svg>
