<?xml version="1.0" encoding="UTF-8"?>
<!-- Created with Inkscape (http://www.inkscape.org/) -->
<svg width="209.87mm" height="34.596mm" version="1.1" viewBox="0 0 209.87 34.596" xmlns="http://www.w3.org/2000/svg"><g transform="translate(20.929 9.2914)"><text x="-23.11087" y="25.058624" fill="#000000" font-family="sans-serif" font-size="35.195px" stroke-width=".35009" style="line-height:1.25" xml:space="preserve"><tspan x="-23.11087" y="25.058624" fill="#222222" font-family="Poppins" font-size="35.195px" font-weight="bold" stroke-width=".35009">P<tspan fill="none">O</tspan>KOÙ WEB</tspan></text></g><g transform="translate(-75.918 -98.444)"><circle cx="109.5" cy="120.39" r="12.668" fill-opacity="0" stroke-width=".26458"/><path d="m112.29 125.41c-0.20624-0.0368-0.45764-0.18062-0.58248-0.33325-0.14305-0.1749-0.24115-0.43238-0.24115-0.63295 0-0.25975 0.10894-0.52019 0.29572-0.70697 0.44453-0.44453 1.1658-0.37319 1.5156 0.14991 0.11929 0.17835 0.16574 0.33254 0.16508 0.54793-7.9e-4 0.26564-0.0832 0.47205-0.266 0.66639-0.12704 0.13505-0.25849 0.22084-0.41838 0.27303-0.1311 0.0428-0.34004 0.0588-0.46844 0.0359z" stroke-width=".017431"/><text transform="matrix(.26458 0 0 .26458 96.847 107.74)" fill="#000000" font-family="sans-serif" font-size="40px" style="line-height:1.25;shape-inside:url(#rect2830);white-space:pre" xml:space="preserve"/><text transform="matrix(.26458 0 0 .26458 96.847 107.74)" fill="#000000" font-family="sans-serif" font-size="40px" style="line-height:1.25;shape-inside:url(#rect70256);white-space:pre" xml:space="preserve"/><path d="m108.71 133.02c-2.2376-0.15512-4.3241-0.85388-6.1644-2.0645-2.3905-1.5725-4.1754-3.9074-5.0692-6.631-0.73417-2.2371-0.82779-4.6427-0.26985-6.9331 0.62962-2.5847 2.0532-4.897 4.085-6.6352 1.9454-1.6643 4.3858-2.7061 6.9478-2.966 0.86274-0.0875 1.917-0.0776 2.7716 0.0261 4.634 0.56226 8.5777 3.6149 10.279 7.9568 0.46603 1.1891 0.74354 2.4236 0.84441 3.7565 0.028 0.3702 0.028 1.3379 0 1.7083-0.17881 2.3648-0.94245 4.5228-2.27 6.4148-1.4911 2.125-3.5846 3.7305-6.0316 4.6252-1.1432 0.41799-2.295 0.65786-3.5688 0.74322-0.30452 0.0204-1.2546 0.0198-1.5544-1e-3zm4.2532-5.5157c1.1428-0.18643 2.0963-0.99367 2.4583-2.0812 0.50468-1.5161-0.18757-3.1468-1.6248-3.8275-0.85467-0.40481-1.8818-0.39268-2.729 0.0322-1.2861 0.64502-1.9616 2.0698-1.6492 3.4784 0.28941 1.3048 1.3795 2.274 2.7255 2.4232 0.19451 0.0216 0.61121 9e-3 0.81926-0.0252zm-6.4757-8.3403c0.54859-0.14038 0.98268-0.5654 1.143-1.1191 0.0532-0.18356 0.0655-0.53395 0.0257-0.73023-0.0615-0.30342-0.20303-0.57427-0.41679-0.79755-0.19684-0.2056-0.46828-0.3649-0.75192-0.44128-0.19947-0.0537-0.58493-0.0537-0.7844 0-0.5985 0.16118-1.0551 0.64423-1.1694 1.2371-0.0291 0.15082-0.0322 0.4419-6e-3 0.58793 0.0592 0.33393 0.21623 0.62636 0.46345 0.86277 0.24753 0.2367 0.53991 0.38271 0.86915 0.43404 0.15555 0.0242 0.46624 8e-3 0.62752-0.0337zm6.8211 2.5e-4c0.48066-0.11805 0.89646-0.47852 1.0843-0.94001 0.15262-0.37503 0.15262-0.83174 0-1.2068-0.18921-0.46494-0.603-0.82165-1.0933-0.94244-0.20358-0.0502-0.52919-0.0537-0.72675-8e-3 -0.59498 0.13802-1.0531 0.58623-1.1996 1.1737-0.0537 0.2154-0.0537 0.54466 0 0.76006 0.14337 0.57496 0.59798 1.0312 1.1575 1.1618 0.0796 0.0186 0.16823 0.0376 0.19699 0.0421 0.10919 0.0173 0.43918-6e-3 0.58077-0.0405z" stroke-width=".017431"/></g></svg>
