<?xml version="1.0" encoding="UTF-8" standalone="no"?>
<!-- Created with Inkscape (http://www.inkscape.org/) -->

<svg
   width="25.308416mm"
   height="25.304668mm"
   viewBox="0 0 25.308416 25.304668"
   version="1.1"
   id="svg2326"
   inkscape:version="1.1 (ce6663b3b7, 2021-05-25)"
   sodipodi:docname="pokou_logo.svg"
   xmlns:inkscape="http://www.inkscape.org/namespaces/inkscape"
   xmlns:sodipodi="http://sodipodi.sourceforge.net/DTD/sodipodi-0.dtd"
   xmlns="http://www.w3.org/2000/svg"
   xmlns:svg="http://www.w3.org/2000/svg">
  <sodipodi:namedview
     id="namedview2328"
     pagecolor="#ffffff"
     bordercolor="#666666"
     borderopacity="1.0"
     inkscape:pageshadow="2"
     inkscape:pageopacity="0.0"
     inkscape:pagecheckerboard="0"
     inkscape:document-units="mm"
     showgrid="false"
     inkscape:zoom="7.5893747"
     inkscape:cx="56.196988"
     inkscape:cy="40.121883"
     inkscape:window-width="2488"
     inkscape:window-height="1536"
     inkscape:window-x="3912"
     inkscape:window-y="27"
     inkscape:window-maximized="1"
     inkscape:current-layer="layer6" />
  <defs
     id="defs2323">
    <linearGradient
       id="linearGradient7930"
       inkscape:swatch="solid">
      <stop
         style="stop-color:#000080;stop-opacity:1;"
         offset="0"
         id="stop7928" />
    </linearGradient>
  </defs>
  <g
     inkscape:groupmode="layer"
     id="layer6"
     inkscape:label="tete"
     style="display:inline;opacity:1"
     transform="translate(-96.846822,-107.73578)">
    <circle
       style="fill:#ff0000;fill-opacity:0;stroke-width:0.264583"
       id="path2435"
       cx="109.50361"
       cy="120.38984"
       r="12.667514"
       clip-path="none" />
    <path
       style="fill:#000000;stroke-width:0.0658816"
       d="m 410.87048,502.76983 c -8.45725,-0.58629 -16.34322,-3.22729 -23.29857,-7.80267 -9.03481,-5.9433 -15.78094,-14.7677 -19.15917,-25.06151 -2.7748,-8.45512 -3.12867,-17.54688 -1.0199,-26.20368 2.37966,-9.76882 7.76019,-18.5083 15.43933,-25.07775 7.35289,-6.29036 16.57608,-10.22761 26.2595,-11.20983 3.26077,-0.33074 7.24521,-0.29321 10.47518,0.0987 17.51434,2.12503 32.41974,13.66236 38.85133,30.07238 1.76139,4.49412 2.81024,9.16002 3.19148,14.19748 0.10589,1.39919 0.10593,5.05639 0,6.45639 -0.67583,8.93778 -3.56202,17.09379 -8.57944,24.24443 -5.63558,8.0316 -13.54829,14.09917 -22.79666,17.4808 -4.32058,1.5798 -8.67401,2.48639 -13.48846,2.80894 -1.15092,0.0771 -4.74179,0.0749 -5.87469,-0.004 z m 16.0751,-20.84654 c 4.31919,-0.70455 7.92306,-3.75551 9.29133,-7.86583 1.90742,-5.72994 -0.70896,-11.89311 -6.14106,-14.46599 -3.23024,-1.52998 -7.11243,-1.48415 -10.31452,0.12175 -4.86089,2.43783 -7.41403,7.82277 -6.23317,13.14664 1.09382,4.93147 5.21374,8.59448 10.30099,9.15858 0.73515,0.0815 2.31007,0.0331 3.09643,-0.0951 z m -24.475,-31.5221 c 2.07341,-0.53056 3.71407,-2.13691 4.31997,-4.22962 0.20088,-0.69381 0.2475,-2.01803 0.0972,-2.75992 -0.23237,-1.14677 -0.76733,-2.17044 -1.57525,-3.01429 -0.74397,-0.77706 -1.76989,-1.37913 -2.8419,-1.66779 -0.7539,-0.20301 -2.21078,-0.20301 -2.96468,0 -2.26204,0.6091 -3.98776,2.43478 -4.4197,4.67573 -0.10986,0.56996 -0.12171,1.67008 -0.0239,2.22208 0.22354,1.26208 0.81723,2.3673 1.75162,3.26081 0.93554,0.89461 2.04059,1.44644 3.28496,1.64042 0.58791,0.0916 1.76217,0.0286 2.37174,-0.12742 z m 25.78064,9e-4 c 1.81666,-0.44612 3.38819,-1.80853 4.09798,-3.55269 0.57683,-1.41743 0.57683,-3.14356 0,-4.56099 -0.71512,-1.75726 -2.27907,-3.10546 -4.13201,-3.56199 -0.76942,-0.18957 -2.0001,-0.20285 -2.74677,-0.0296 -2.24875,0.52167 -3.98015,2.21567 -4.53375,4.43581 -0.203,0.8141 -0.203,2.0585 0,2.87261 0.54187,2.17309 2.26009,3.89756 4.37496,4.39089 0.3008,0.0702 0.63585,0.14167 0.74455,0.15889 0.41269,0.0654 1.65987,-0.0215 2.19504,-0.1529 z"
       id="path3297"
       transform="scale(0.26458333)"
       clip-path="none" />
    <path
       style="display:inline;fill:#000000;stroke-width:0.0174312"
       d="m 112.28724,125.40772 c -0.20624,-0.0368 -0.45764,-0.18062 -0.58248,-0.33325 -0.14305,-0.1749 -0.24115,-0.43238 -0.24115,-0.63295 0,-0.25975 0.10894,-0.52019 0.29572,-0.70697 0.44453,-0.44453 1.16578,-0.37319 1.51565,0.14991 0.11929,0.17835 0.16574,0.33254 0.16508,0.54793 -7.9e-4,0.26564 -0.0832,0.47205 -0.266,0.66639 -0.12704,0.13505 -0.25849,0.22084 -0.41838,0.27303 -0.1311,0.0428 -0.34004,0.0588 -0.46844,0.0359 z"
       id="path3453-6"
       clip-path="none" />
  </g>
</svg>
