<?xml version="1.0" encoding="UTF-8"?>
<!-- Created with Inkscape (http://www.inkscape.org/) -->
<svg width="209.87mm" height="34.596mm" version="1.1" viewBox="0 0 209.87 34.596" xmlns="http://www.w3.org/2000/svg"><g transform="translate(20.929 9.2914)"><text x="-23.11087" y="25.058624" fill="#000000" font-family="sans-serif" font-size="35.195px" stroke-width=".35009" style="line-height:1.25" xml:space="preserve"><tspan x="-23.11087" y="25.058624" fill="#222222" font-family="Poppins" font-size="35.195px" font-weight="bold" stroke-width=".35009">P<tspan fill="none">O</tspan>KOÙ WEB</tspan></text><path transform="matrix(.26458 0 0 .26458 -20.929 -9.2914)" d="m121.88 130.45c-8.9418-1.0809-16.708-4.1685-23.717-9.4291-9.6351-7.2314-16.229-18.055-18.301-30.04-0.63893-3.6956-0.8533-9.1622-0.49087-12.518 1.0717-9.9213 4.7222-18.633 10.978-26.197 1.2123-1.4659 4.4574-4.7122 5.9035-5.9057 6.7023-5.5315 14.483-9.1153 22.831-10.517 2.8219-0.47368 4.45-0.59873 7.794-0.59861 4.512 1.63e-4 7.4253 0.33835 11.408 1.3242 16.761 4.1493 29.81 16.741 34.606 33.393 0.5332 1.8512 1.1256 4.7241 1.4542 7.0519 0.34057 2.4127 0.33916 9.3809-2e-3 11.793-0.86815 6.1305-2.4568 11.19-5.1024 16.25-5.1473 9.8441-13.85 17.821-23.972 21.972-3.9368 1.6144-7.3568 2.5482-11.859 3.2377-2.29 0.35076-9.2342 0.46181-11.529 0.18438zm17.65-20.501c3.652-0.41837 6.9017-2.526 8.8287-5.7262 0.54069-0.89792 1.0326-2.1521 1.3438-3.4258 0.33616-1.3761 0.30086-4.1473-0.0705-5.5341-1.1196-4.1812-4.1901-7.3129-8.34-8.5063-1.2397-0.35649-3.6902-0.48382-5.0596-0.2629-5.0599 0.81625-8.9978 4.7563-9.8147 9.82-0.21513 1.3336-0.0891 3.8007 0.25589 5.0103 1.3185 4.6229 5.0786 7.9238 9.832 8.6313 0.9778 0.14554 1.7118 0.144 3.0245-6e-3zm-24.436-31.49c1.8957-0.29748 3.5235-1.5275 4.4187-3.3388 0.42034-0.8505 0.49793-1.1512 0.55472-2.1497 0.15216-2.6753-1.1622-4.9195-3.524-6.0172-0.74365-0.34561-1.0387-0.40464-2.24-0.44818-1.1493-0.04165-1.5156-0.0039-2.1634 0.22306-3.6229 1.269-5.2289 5.3883-3.4062 8.7371 0.43761 0.80402 1.7738 2.0689 2.6164 2.4768 1.2473 0.60379 2.2808 0.74648 3.7438 0.51689zm25.737 0.0012c1.2181-0.17611 2.1864-0.66289 3.1946-1.6061 3.38-3.1618 1.9536-8.9791-2.4969-10.184-0.61934-0.16765-1.18-0.21498-2.0791-0.17551-1.5535 0.0682-2.648 0.53703-3.7845 1.6211-1.3754 1.3119-1.9346 2.7676-1.8302 4.7642 0.0549 1.0499 0.12896 1.3553 0.537 2.2145 0.77048 1.6224 2.1098 2.7586 3.8332 3.252 0.94285 0.26992 1.4063 0.28999 2.6258 0.11368z" fill="none" stroke-width=".13176"/></g><g transform="translate(-75.918 -98.444)"><circle cx="109.5" cy="120.39" r="12.668" fill-opacity="0" stroke-width=".26458"/><g><path d="m112.29 125.41c-0.20624-0.0368-0.45764-0.18062-0.58248-0.33325-0.14305-0.1749-0.24115-0.43238-0.24115-0.63295 0-0.25975 0.10894-0.52019 0.29572-0.70697 0.44453-0.44453 1.1658-0.37319 1.5156 0.14991 0.11929 0.17835 0.16574 0.33254 0.16508 0.54793-7.9e-4 0.26564-0.0832 0.47205-0.266 0.66639-0.12704 0.13505-0.25849 0.22084-0.41838 0.27303-0.1311 0.0428-0.34004 0.0588-0.46844 0.0359z" fill="#222" stroke-width=".017431"/><text transform="matrix(.26458 0 0 .26458 96.847 107.74)" fill="#000000" font-family="sans-serif" font-size="40px" style="line-height:1.25;shape-inside:url(#rect2830);white-space:pre" xml:space="preserve"/><text transform="matrix(.26458 0 0 .26458 96.847 107.74)" fill="#000000" font-family="sans-serif" font-size="40px" style="line-height:1.25;shape-inside:url(#rect70256);white-space:pre" xml:space="preserve"/><path d="m108.71 133.02c-2.2376-0.15512-4.3241-0.85388-6.1644-2.0645-2.3905-1.5725-4.1754-3.9074-5.0692-6.631-0.73417-2.2371-0.82779-4.6427-0.26985-6.9331 0.62962-2.5847 2.0532-4.897 4.085-6.6352 1.9454-1.6643 4.3858-2.7061 6.9478-2.966 0.86274-0.0875 1.917-0.0776 2.7716 0.0261 4.634 0.56226 8.5777 3.6149 10.279 7.9568 0.46603 1.1891 0.74354 2.4236 0.84441 3.7565 0.028 0.3702 0.028 1.3379 0 1.7083-0.17881 2.3648-0.94245 4.5228-2.27 6.4148-1.4911 2.125-3.5846 3.7305-6.0316 4.6252-1.1432 0.41799-2.295 0.65786-3.5688 0.74322-0.30452 0.0204-1.2546 0.0198-1.5544-1e-3zm4.2532-5.5157c1.1428-0.18643 2.0963-0.99367 2.4583-2.0812 0.50468-1.5161-0.18757-3.1468-1.6248-3.8275-0.85467-0.40481-1.8818-0.39268-2.729 0.0322-1.2861 0.64502-1.9616 2.0698-1.6492 3.4784 0.28941 1.3048 1.3795 2.274 2.7255 2.4232 0.19451 0.0216 0.61121 9e-3 0.81926-0.0252zm-6.4757-8.3403c0.54859-0.14038 0.98268-0.5654 1.143-1.1191 0.0532-0.18356 0.0655-0.53395 0.0257-0.73023-0.0615-0.30342-0.20303-0.57427-0.41679-0.79755-0.19684-0.2056-0.46828-0.3649-0.75192-0.44128-0.19947-0.0537-0.58493-0.0537-0.7844 0-0.5985 0.16118-1.0551 0.64423-1.1694 1.2371-0.0291 0.15082-0.0322 0.4419-6e-3 0.58793 0.0592 0.33393 0.21623 0.62636 0.46345 0.86277 0.24753 0.2367 0.53991 0.38271 0.86915 0.43404 0.15555 0.0242 0.46624 8e-3 0.62752-0.0337zm6.8211 2.5e-4c0.48066-0.11805 0.89646-0.47852 1.0843-0.94001 0.15262-0.37503 0.15262-0.83174 0-1.2068-0.18921-0.46494-0.603-0.82165-1.0933-0.94244-0.20358-0.0502-0.52919-0.0537-0.72675-8e-3 -0.59498 0.13802-1.0531 0.58623-1.1996 1.1737-0.0537 0.2154-0.0537 0.54466 0 0.76006 0.14337 0.57496 0.59798 1.0312 1.1575 1.1618 0.0796 0.0186 0.16823 0.0376 0.19699 0.0421 0.10919 0.0173 0.43918-6e-3 0.58077-0.0405z" fill="#222" stroke-width=".017431"/></g></g></svg>
