<?xml version="1.0" encoding="UTF-8" standalone="no"?>
<!-- Created with Inkscape (http://www.inkscape.org/) -->

<svg
   width="20.006239mm"
   height="20.006239mm"
   viewBox="0 0 20.006239 20.006239"
   version="1.1"
   id="svg2326"
   inkscape:version="1.1 (ce6663b3b7, 2021-05-25)"
   sodipodi:docname="pokou_faviconv2_white.svg"
   xmlns:inkscape="http://www.inkscape.org/namespaces/inkscape"
   xmlns:sodipodi="http://sodipodi.sourceforge.net/DTD/sodipodi-0.dtd"
   xmlns:xlink="http://www.w3.org/1999/xlink"
   xmlns="http://www.w3.org/2000/svg"
   xmlns:svg="http://www.w3.org/2000/svg">
  <sodipodi:namedview
     id="namedview2328"
     pagecolor="#ffffff"
     bordercolor="#666666"
     borderopacity="1.0"
     inkscape:pageshadow="2"
     inkscape:pageopacity="0.0"
     inkscape:pagecheckerboard="0"
     inkscape:document-units="mm"
     showgrid="false"
     inkscape:zoom="10.732997"
     inkscape:cx="26.507042"
     inkscape:cy="36.569469"
     inkscape:window-width="2488"
     inkscape:window-height="1536"
     inkscape:window-x="3912"
     inkscape:window-y="27"
     inkscape:window-maximized="1"
     inkscape:current-layer="layer10" />
  <defs
     id="defs2323">
    <inkscape:path-effect
       effect="powerclip"
       id="path-effect24028"
       is_visible="true"
       lpeversion="1"
       inverse="true"
       flatten="false"
       hide_clip="false"
       message="Utilise la règle de remplissage « fill-rule: evenodd » de la boîte de dialogue &lt;b&gt;Fond et contour&lt;/b&gt; en l'absence de résultat de mise à plat après une conversion en chemin." />
    <linearGradient
       id="linearGradient12539"
       inkscape:swatch="solid">
      <stop
         style="stop-color:#000000;stop-opacity:1;"
         offset="0"
         id="stop12537" />
    </linearGradient>
    <linearGradient
       id="linearGradient7930"
       inkscape:swatch="solid">
      <stop
         style="stop-color:#000080;stop-opacity:1;"
         offset="0"
         id="stop7928" />
    </linearGradient>
    <clipPath
       clipPathUnits="userSpaceOnUse"
       id="clipPath23605">
      <use
         x="0"
         y="0"
         xlink:href="#g23601"
         id="use23607"
         width="100%"
         height="100%" />
    </clipPath>
    <clipPath
       clipPathUnits="userSpaceOnUse"
       id="clipPath24012">
      <g
         id="g24026"
         transform="translate(0.61216828,-0.17651235)"
         style="display:none">
        <g
           id="g24018"
           clip-path="url(#clipPath23605)"
           transform="translate(-0.61216828,0.17651235)">
          <g
             inkscape:label="Clip"
             id="g24016">
            <circle
               style="fill:#d40000;fill-opacity:1;stroke-width:0.27664;paint-order:stroke fill markers"
               id="circle24014"
               cx="9.2465534"
               cy="9.8872604"
               r="1.5668538" />
          </g>
        </g>
        <circle
           style="fill:#d40000;fill-opacity:1;stroke-width:0.27664;paint-order:stroke fill markers"
           id="circle24020"
           r="1.5668538"
           cy="10.063772"
           cx="15.458468" />
        <circle
           style="fill:#d40000;fill-opacity:1;stroke-width:0.264583;paint-order:stroke fill markers"
           id="circle24022"
           r="3.0950482"
           cy="16.869555"
           cx="15.014636" />
        <circle
           style="fill:#000000;fill-opacity:1;stroke-width:0.264583;paint-order:stroke fill markers"
           id="circle24024"
           cx="15.001319"
           cy="16.870085"
           r="0.96289521" />
      </g>
      <path
         id="lpe_path-effect24028"
         class="powerclip"
         d="M -2.407794,-1.90277 H 27.598445 V 28.103469 H -2.407794 Z M 10.813407,9.8872604 A 1.5668538,1.5668538 0 0 0 9.2465534,8.3204067 1.5668538,1.5668538 0 0 0 7.6796997,9.8872604 1.5668538,1.5668538 0 0 0 9.2465534,11.454114 1.5668538,1.5668538 0 0 0 10.813407,9.8872604 Z m 6.211915,0.1765116 a 1.5668538,1.5668538 0 0 0 -1.566854,-1.5668536 1.5668538,1.5668538 0 0 0 -1.566853,1.5668536 1.5668538,1.5668538 0 0 0 1.566853,1.566854 1.5668538,1.5668538 0 0 0 1.566854,-1.566854 z m 1.084362,6.805783 a 3.0950482,3.0950482 0 0 0 -3.095048,-3.095049 3.0950482,3.0950482 0 0 0 -3.095048,3.095049 3.0950482,3.0950482 0 0 0 3.095048,3.095048 3.0950482,3.0950482 0 0 0 3.095048,-3.095048 z m -2.14547,5.3e-4 a 0.96289521,0.96289521 0 0 0 -0.962895,-0.962895 0.96289521,0.96289521 0 0 0 -0.962895,0.962895 0.96289521,0.96289521 0 0 0 0.962895,0.962895 0.96289521,0.96289521 0 0 0 0.962895,-0.962895 z" />
    </clipPath>
  </defs>
  <g
     inkscape:groupmode="layer"
     id="layer10"
     inkscape:label="petite tete"
     style="display:inline;opacity:1"
     transform="translate(-1.9800377,-3.2737423)">
    <g
       id="g2687">
      <g
         id="g23058"
         transform="translate(-0.61216828,0.17651235)"
         clip-path="url(#clipPath24012)"
         inkscape:path-effect="#path-effect24028"
         style="fill:#ffffff;fill-opacity:1;stroke:none;stroke-opacity:1">
        <circle
           style="fill:#ffffff;fill-opacity:1;stroke:none;stroke-width:0.264583;stroke-opacity:1;paint-order:stroke fill markers"
           id="path8909"
           cx="12.595325"
           cy="13.100349"
           r="10.003119"
           d="M 22.598445,13.100349 A 10.003119,10.003119 0 0 1 12.595325,23.103469 10.003119,10.003119 0 0 1 2.592206,13.100349 10.003119,10.003119 0 0 1 12.595325,3.09723 10.003119,10.003119 0 0 1 22.598445,13.100349 Z" />
      </g>
      <path
         style="fill:#ffffff;fill-opacity:1;stroke:none;stroke-width:0.0931706;stroke-opacity:1"
         d="m 31.67982,43.830469 c -0.578494,-0.09669 -1.38406,-0.387178 -1.973687,-0.711713 -0.644152,-0.354545 -1.889135,-1.638302 -2.240898,-2.310687 -1.553185,-2.968875 -0.367052,-6.583978 2.641544,-8.050912 0.793992,-0.387136 1.591265,-0.563665 2.553241,-0.56533 1.486509,-0.0026 2.829594,0.53019 3.912917,1.552142 0.811658,0.765678 1.268221,1.45399 1.593345,2.402117 0.528904,1.542398 0.426388,3.003912 -0.317255,4.52289 -1.099361,2.245572 -3.693964,3.575211 -6.169207,3.161493 z"
         id="path1282"
         transform="scale(0.26458333)" />
      <path
         style="fill:#ffffff;fill-opacity:1;stroke:none;stroke-width:0.0931706;stroke-opacity:1"
         d="m 55.203593,44.518172 c -1.11767,-0.185186 -2.399958,-0.859003 -3.226942,-1.695695 -1.090493,-1.103294 -1.618352,-2.302441 -1.686201,-3.830572 -0.05415,-1.219615 0.107992,-1.972405 0.648681,-3.011677 1.205504,-2.317131 3.966267,-3.588043 6.500557,-2.99252 1.98062,0.465419 3.738235,2.142855 4.320071,4.123 0.769644,2.619303 -0.547005,5.587888 -3.018836,6.806426 -1.129053,0.556588 -2.450484,0.781118 -3.53733,0.601038 z"
         id="path1321"
         transform="scale(0.26458333)" />
      <path
         style="fill:#ffffff;fill-opacity:1;stroke:none;stroke-width:0.0931706;stroke-opacity:1"
         d="m 52.82962,75.969956 c -4.432587,-0.645489 -8.158433,-3.815343 -9.496327,-8.079232 -1.042035,-3.320979 -0.537232,-6.895906 1.393383,-9.867709 0.671438,-1.033547 2.257123,-2.631505 3.256194,-3.281397 1.909788,-1.242309 3.791134,-1.842322 6.05609,-1.931454 5.406979,-0.212779 10.216523,3.370841 11.652635,8.682446 1.237303,4.57629 -0.5743,9.58133 -4.487566,12.398104 -2.325985,1.674247 -5.590163,2.484694 -8.374409,2.079242 z m 2.583501,-8.017535 c 0.243349,-0.05289 0.688892,-0.255439 0.990094,-0.450116 1.944075,-1.256515 2.229752,-4.033338 0.584237,-5.678854 -1.438629,-1.438629 -3.875772,-1.400769 -5.262495,0.08175 -0.24616,0.263164 -0.559929,0.718221 -0.697266,1.011236 -0.221143,0.471823 -0.249702,0.644648 -0.249702,1.511048 0,0.8664 0.02856,1.039225 0.249702,1.511047 0.515332,1.099492 1.635411,1.955807 2.76034,2.110315 0.566515,0.07781 0.919838,0.05685 1.62509,-0.09643 z"
         id="path1360"
         transform="scale(0.26458333)" />
      <path
         style="fill:#000000;fill-opacity:1;stroke:none;stroke-width:0.0931706;stroke-opacity:1"
         d="m 31.661459,43.827621 c -2.237522,-0.373575 -4.17655,-2.196805 -4.745255,-4.461869 -0.220252,-0.877227 -0.143032,-2.343173 0.170246,-3.231963 0.596306,-1.691759 2.003242,-3.084451 3.70644,-3.668918 0.830991,-0.285162 2.335977,-0.353916 3.168966,-0.144771 1.4086,0.353667 2.790489,1.333514 3.599418,2.552217 0.790063,1.190282 1.111206,2.817819 0.832253,4.217828 -0.629374,3.158698 -3.612892,5.258254 -6.732068,4.737476 z"
         id="path1516"
         transform="scale(0.26458333)" />
      <path
         style="fill:#000000;fill-opacity:1;stroke:none;stroke-width:0.0931706;stroke-opacity:1"
         d="m 54.84654,44.439268 c -1.653849,-0.358983 -3.206816,-1.594355 -3.978272,-3.164683 -0.43202,-0.879391 -0.602988,-1.606794 -0.601341,-2.558474 0.0018,-1.038688 0.192168,-1.813193 0.672703,-2.736842 0.982211,-1.887934 3.052775,-3.139405 5.187281,-3.135248 1.582115,0.0031 2.903384,0.561993 4.066591,1.720216 1.465325,1.459043 2.054568,3.275417 1.680842,5.181278 -0.640617,3.266901 -3.819637,5.390115 -7.027804,4.693753 z"
         id="path1555"
         transform="scale(0.26458333)" />
      <path
         style="fill:#000000;fill-opacity:1;stroke:none;stroke-width:0.0931706;stroke-opacity:1"
         d="m 52.82962,75.969956 c -2.614923,-0.380795 -4.956585,-1.602114 -6.828697,-3.561585 -3.733292,-3.907496 -4.254989,-9.79709 -1.274247,-14.385356 0.671438,-1.033547 2.257123,-2.631505 3.256194,-3.281397 1.909788,-1.242309 3.791134,-1.842322 6.05609,-1.931454 3.206529,-0.126186 6.284302,1.083308 8.575147,3.369834 1.712265,1.709037 2.726912,3.59356 3.263141,6.06069 0.195848,0.901079 0.22535,3.244881 0.05199,4.130041 -0.606953,3.098962 -2.290663,5.779314 -4.725206,7.522201 -2.341003,1.675924 -5.59193,2.48222 -8.374409,2.077026 z m 2.712267,-8.055967 c 0.952498,-0.261244 1.946956,-1.226274 2.302699,-2.234558 0.768634,-2.17854 -0.646264,-4.572591 -2.873919,-4.862758 -1.699931,-0.221428 -3.239243,0.598306 -3.942976,2.099764 -0.221143,0.471823 -0.249702,0.644648 -0.249702,1.511048 0,0.8664 0.02856,1.039225 0.249702,1.511047 0.652354,1.391836 2.186794,2.289625 3.663464,2.143461 0.204975,-0.02029 0.587805,-0.09589 0.850732,-0.168004 z"
         id="path1594"
         transform="scale(0.26458333)" />
    </g>
  </g>
</svg>
