<?xml version="1.0" encoding="UTF-8" standalone="no"?>
<!-- Created with Inkscape (http://www.inkscape.org/) -->

<svg
   width="228.27248mm"
   height="34.601456mm"
   viewBox="0 0 228.27247 34.601455"
   version="1.1"
   id="svg2326"
   xmlns="http://www.w3.org/2000/svg"
   xmlns:svg="http://www.w3.org/2000/svg">
  <defs
     id="defs2323">
    <rect
       x="-116.1098"
       y="-130.88943"
       width="195.33531"
       height="118.0727"
       id="rect70256" />
    <rect
       x="-57.274029"
       y="-13.310275"
       width="152.97234"
       height="61.750759"
       id="rect2830" />
    <linearGradient
       id="linearGradient7930">
      <stop
         style="stop-color:#000080;stop-opacity:1;"
         offset="0"
         id="stop7928" />
    </linearGradient>
  </defs>
  <g
     id="layer1"
     style="display:inline;opacity:1"
     transform="translate(23.11087,9.2914013)">
    <g
       id="g175198">
      <text
         xml:space="preserve"
         style="font-style:normal;font-weight:normal;font-size:35.1947px;line-height:1.25;font-family:sans-serif;display:inline;opacity:1;fill:#000000;fill-opacity:1;stroke:none;stroke-width:0.350093"
         x="-23.11087"
         y="25.058624"
         id="text4486"><tspan
           id="tspan4484"
           style="font-style:normal;font-variant:normal;font-weight:bold;font-stretch:normal;font-size:35.1947px;font-family:Poppins;-inkscape-font-specification:'Poppins Bold';stroke-width:0.350093"
           x="-23.11087"
           y="25.058624"> P<tspan
   style="fill:none"
   id="tspan98536">O</tspan>KOÙ WEB  </tspan></text>
      <path
         style="display:inline;opacity:1;fill:#000000;stroke-width:0.0174313"
         d="m 116.18785,133.02991 c -2.23765,-0.15512 -4.32414,-0.85388 -6.16441,-2.06446 -2.39046,-1.57254 -4.17537,-3.90735 -5.0692,-6.63096 -0.73416,-2.23711 -0.82779,-4.64267 -0.26985,-6.93314 0.62962,-2.5847 2.05322,-4.89704 4.08499,-6.63525 1.94545,-1.66432 4.38575,-2.70607 6.94783,-2.96596 0.86274,-0.0875 1.91696,-0.0776 2.77155,0.0261 4.63401,0.56226 8.57773,3.61487 10.27942,7.95675 0.46603,1.18908 0.74354,2.42361 0.84441,3.75646 0.028,0.3702 0.028,1.33786 0,1.70827 -0.17881,2.36482 -0.94245,4.5228 -2.26998,6.41476 -1.49108,2.12504 -3.58465,3.73046 -6.03161,4.62518 -1.14316,0.41799 -2.295,0.65786 -3.56882,0.74322 -0.30452,0.0204 -1.2546,0.0198 -1.55435,-0.001 z m 4.2532,-5.5157 c 1.14279,-0.18643 2.09631,-0.99367 2.45833,-2.0812 0.50468,-1.51607 -0.18757,-3.14677 -1.62482,-3.82752 -0.85467,-0.40481 -1.88183,-0.39268 -2.72905,0.0322 -1.28611,0.64502 -1.96163,2.0698 -1.64919,3.47842 0.28941,1.30482 1.37947,2.274 2.72547,2.42325 0.19451,0.0216 0.61121,0.009 0.81926,-0.0252 z m -6.47567,-8.34034 c 0.54859,-0.14038 0.98268,-0.5654 1.14299,-1.1191 0.0532,-0.18356 0.0655,-0.53395 0.0257,-0.73023 -0.0615,-0.30342 -0.20303,-0.57427 -0.41679,-0.79755 -0.19684,-0.2056 -0.46828,-0.3649 -0.75192,-0.44128 -0.19947,-0.0537 -0.58493,-0.0537 -0.7844,0 -0.5985,0.16118 -1.0551,0.64423 -1.16938,1.23714 -0.0291,0.15082 -0.0322,0.4419 -0.006,0.58793 0.0592,0.33393 0.21623,0.62636 0.46345,0.86277 0.24753,0.2367 0.53991,0.38271 0.86915,0.43404 0.15555,0.0242 0.46624,0.008 0.62752,-0.0337 z m 6.82112,2.5e-4 c 0.48066,-0.11805 0.89646,-0.47852 1.08426,-0.94001 0.15262,-0.37503 0.15262,-0.83174 0,-1.20678 -0.18921,-0.46494 -0.603,-0.82165 -1.09326,-0.94244 -0.20358,-0.0502 -0.52919,-0.0537 -0.72675,-0.008 -0.59498,0.13802 -1.05308,0.58623 -1.19955,1.17366 -0.0537,0.2154 -0.0537,0.54466 0,0.76006 0.14337,0.57496 0.59798,1.03123 1.15754,1.16176 0.0796,0.0186 0.16823,0.0376 0.19699,0.0421 0.10919,0.0173 0.43918,-0.006 0.58077,-0.0405 z"
         id="path3297"
         clip-path="none"
         transform="translate(-96.846821,-107.73578)" />
    </g>
  </g>
  <g
     id="layer6"
     style="display:none;opacity:1"
     transform="translate(-73.735952,-98.444379)">
    <circle
       style="fill:#ff0000;fill-opacity:0;stroke-width:0.264583"
       id="path2435"
       cx="109.50361"
       cy="120.38984"
       r="12.667514"
       clip-path="none" />
    <path
       style="display:inline;fill:#000000;stroke-width:0.0174312"
       d="m 112.28724,125.40772 c -0.20624,-0.0368 -0.45764,-0.18062 -0.58248,-0.33325 -0.14305,-0.1749 -0.24115,-0.43238 -0.24115,-0.63295 0,-0.25975 0.10894,-0.52019 0.29572,-0.70697 0.44453,-0.44453 1.16578,-0.37319 1.51565,0.14991 0.11929,0.17835 0.16574,0.33254 0.16508,0.54793 -7.9e-4,0.26564 -0.0832,0.47205 -0.266,0.66639 -0.12704,0.13505 -0.25849,0.22084 -0.41838,0.27303 -0.1311,0.0428 -0.34004,0.0588 -0.46844,0.0359 z"
       id="path3453-6"
       clip-path="none" />
    <text
       xml:space="preserve"
       transform="matrix(0.26458333,0,0,0.26458333,96.846822,107.73578)"
       id="text2828"
       style="font-style:normal;font-weight:normal;font-size:40px;line-height:1.25;font-family:sans-serif;white-space:pre;shape-inside:url(#rect2830);fill:#000000;fill-opacity:1;stroke:none" />
    <text
       xml:space="preserve"
       transform="matrix(0.26458333,0,0,0.26458333,96.846822,107.73578)"
       id="text70254"
       style="font-style:normal;font-weight:normal;font-size:40px;line-height:1.25;font-family:sans-serif;white-space:pre;shape-inside:url(#rect70256);fill:#000000;fill-opacity:1;stroke:none" />
  </g>
</svg>
