<svg xmlns="http://www.w3.org/2000/svg" xmlns:xlink="http://www.w3.org/1999/xlink" version="1.1" x="0px" y="0px" viewBox="0 0 51 63.75" enable-background="new 0 0 51 51" xml:space="preserve"><g><path d="M38.1415062,11.5468626c-0.6320801-3.986939-5.0075073-6.0888677-8.4804688-4.2905278   c-0.7089844-2.2602539-3.90625-4.7143555-5.3251953-5.2592773c-0.8300781-0.3183594-1.7578125-0.4799805-2.7578125-0.4799805   c-5.9985962,0-12.559021,5.4733276-12.1318359,12.4716797c-1.4343872-0.3057861-3.3103633,0.9309082-4.327148,1.4287109   c-3.2255862,1.5844717-4.0712891,4.86621-3.4794924,7.4150381c1.4342041,6.1687622,8.3168335,5.2247925,8.4628906,5.2636719   c1.3536987-0.0048218,2.847229-0.0123901,4.4146118-0.0228271c-0.1761475,2.026062-0.3383179,4.5698872-0.4507446,8.1541767   l-0.4208984,10.7329102c-0.0185547,0.5976563,0.1992188,1.1630859,0.6132813,1.5927734   c0.4130859,0.4277344,0.9677734,0.6645508,1.5615234,0.6665039c1.3171387,0.0046997,2.1078491,0.2631836,4.7851563,0.2631836   h0.0009766c1.6279297,0,3.2841797-0.0981445,4.8857422-0.1933594c2.5673828-0.1523438,5.3369141-0.2758789,7.5390625-0.0800781   c1.2802734,0.1108398,2.3525391-0.8564453,2.3925781-2.1054688c0.4797974-11.4699707,0.4481201-13.9296875,0.9161377-19.4656391   c2.5419312-0.1188965,4.5166016-0.267334,5.5125732-0.4537964c3.625-0.6791992,6.1738281-2.6069336,7.1767578-5.4287109   C51.4840965,14.8460569,44.5550194,9.0004148,38.1415062,11.5468626z M35.958889,21.5458851   c-1.3327637,11.5827045-0.958313,14.5535908-1.5351563,25.5224628c-0.0205078,0.6450195-0.5449219,1.1499023-1.1943359,1.1499023   l-0.1103516-0.0048828c-2.2646484-0.2011719-5.0849609-0.0766602-7.6865234,0.078125   c-7.7629395,0.4609985-7.1494141-0.0637207-9.6083984-0.0717773c-0.3212891-0.0009766-0.6220703-0.1293945-0.8457031-0.3613281   c-0.2255859-0.2333984-0.34375-0.5410156-0.3330078-0.8623047l0.4208984-10.7333984   c0.1982422-6.3134785,0.5498047-9.3779316,0.8603516-12.0815449c0.2265625-1.9711914,0.4404297-3.8330078,0.5761719-6.675293   c0.0302734-0.6230469,0.5566406-1.1108398,1.2255859-1.1108398c0.8564453,0.0180664,1.8925781,0.0258789,3.0175781,0.0258789   c13.8161621,0,11.1281738-0.3212891,13.8955078-0.3212891c0.7744141,0,1.1894531,0.0952148,1.3886719,0.3178711   C36.4911156,16.934557,36.2909203,18.6703968,35.958889,21.5458851z M38.5047874,18.7368031   c0.2460938,0.1279297,0.5478516,0.0336914,0.6748047-0.2119141c0.6142578-1.1772461,1.4482422-1.8251953,2.2949219-1.769043   c0.5722656,0.0366211,1.0605469,0.4169922,1.2744141,0.9931641c0.0878906,0.2387695,0.3359375,0.3710938,0.5898438,0.3120117   c0.2470703-0.0615234,0.4082031-0.2993164,0.3740234-0.5517578c-0.0136719-0.1049805-0.0507813-0.3828125,0.4443359-0.5761719   c0.9697266-0.3764648,3.0195313,0.0058594,4.1904297,1.6831055c0.0314941,0.0448608,0.0762329,0.0714722,0.1178589,0.1026001   c0.1637573,3.449646-1.9271851,6.5708008-6.7965698,7.4823608c-0.866272,0.1623535-2.661377,0.305542-5.2384644,0.4280396   c0.1811523-1.9818115,0.3687134-3.6342163,0.522644-4.9685669c0.3994141-3.472168,0.5820313-5.0571289-0.1767578-5.9086905   c-0.5107422-0.5732422-1.328125-0.6523438-2.1347656-0.6523438c-2.4829102,0-0.8925781,0.3212891-13.8955078,0.3212891   c-1.1171875,0-2.1455078-0.0078125-3.0429688-0.0263672c-1.1777344,0-2.1425781,0.906249-2.1982422,2.0634756   c-0.1347656,2.809082-0.3466797,4.6547852-0.5712891,6.6088867c-0.1057739,0.9215698-0.2163696,1.8884888-0.3242798,3.0056763   c-1.4579468,0.0098267-2.9535522,0.0180054-4.5097046,0.0236206c-0.3945313,0.0014648-0.6123209,0.003418-0.6210938,0.0043945   c-3.7440791,0.2581787-6.2171631-1.7062988-6.8642578-4.4946289c-0.5029297-2.1635742,0.2128906-4.9482422,2.9462893-6.2910156   c0.9016113-0.4441519,2.3104858-1.3779287,3.3759761-1.3779287c0.3144531,0,0.5664063,0.0849609,0.7685547,0.2592773   c0.1582031,0.1362305,0.3837891,0.159668,0.5654297,0.0595703c0.1826172-0.0996094,0.2841797-0.3017578,0.2558594-0.5073242   c-0.2280273-1.6486816-0.0350952-3.0872192,0.3588867-4.333313c0.1363525-0.0322876,0.2591553-0.1160278,0.3286133-0.2506714   c1.2288208-2.355103,3.081665-2.0930786,3.5683594-0.7758789c0.0869141,0.2387695,0.3378906,0.3706055,0.5898438,0.3120117   c0.2470703-0.0615234,0.4082031-0.2993164,0.3740234-0.5522461c-0.0136719-0.1054688-0.0517578-0.3852539,0.4384766-0.5766602   c0.9912109-0.3833008,3.0673828,0.0673828,4.1962891,1.684082c0.0976563,0.1391602,0.2529297,0.2138672,0.4101563,0.2138672   c0.0996094,0,0.1992188-0.0292969,0.2861328-0.090332c0.2265625-0.1577148,0.2822266-0.4697266,0.1240234-0.6958008   c-1.6772461-2.4003301-4.9616089-2.7858281-6.0791016-1.5849609c-0.7600708-0.7600713-1.8968506-0.9108281-2.8809204-0.4370732   c2.2488403-3.2346802,6.0865479-5.1444702,9.3369751-5.1444702c0.8769531,0,1.6835938,0.1391602,2.3984375,0.4135742   c1.5546875,0.5966797,4.7695313,3.3525388,4.8251953,5.1391602c0.0058594,0.1831055,0.1113281,0.3481445,0.2744141,0.4306641   c0.1630859,0.081543,0.3574219,0.0688477,0.5087891-0.034668c3.1397095-2.1583257,7.4927368-0.0079956,7.6269531,3.8413086   c0.0058594,0.1708984,0.0996094,0.3266602,0.2460938,0.4135742c0.1484375,0.0869141,0.3300781,0.0922852,0.4814453,0.0141602   c3.5722046-1.8251953,8.9437866-0.3969116,10.2453003,4.2749624c-1.3830566-1.1261587-3.2011719-1.4708242-4.3908081-1.0083618   c-0.2880859,0.112793-0.5253906,0.2695313-0.703125,0.4599609c-0.4111328-0.4116211-0.9541016-0.6655264-1.5527344-0.7036123   c-1.2480469-0.0825195-2.4394531,0.760253-3.2451172,2.3041983C38.1649437,18.3071156,38.2596703,18.6088734,38.5047874,18.7368031   z"/><path d="M5.162991,20.9169788c-0.1425781,0.2358398-0.0683594,0.543457,0.1679688,0.6870117   c0.0810547,0.0493164,0.1708984,0.0727539,0.2597656,0.0727539c0.1679688,0,0.3330078-0.0854492,0.4277344-0.2402344   c0.6123047-1.0087891,1.7705078-1.6826172,2.9501948-1.7163086c0.5234375-0.0180664,1.2402344,0.144043,1.4804688,0.6489258   c0.1171875,0.25,0.4169922,0.3525391,0.6660156,0.2368164c0.2490234-0.1186523,0.3554688-0.4169922,0.2363281-0.6665039   C10.4643211,18.071764,6.7425199,18.3207264,5.162991,20.9169788z"/><path d="M33.5731468,18.7797718c-2.921875,0.0175781-5.890625,0.1816406-8.7607422,0.3408203   c-2.1787109,0.1206055-4.4316406,0.2451172-6.6464844,0.3046875c-0.1279297,0.003418-0.2324219,0.1030273-0.2421875,0.230957   c-0.1865406,2.4082031-0.3632813,3.9741211-0.5351563,5.4882813c-0.3046875,2.6953125-0.5683594,5.0229492-0.7724609,11.1674824   l-0.3378906,8.0351563c-0.0029297,0.0693359,0.0234375,0.1362305,0.0712891,0.1855469   c0.046875,0.0483398,0.1113281,0.0751953,0.1787109,0.0751953c0.0019531,0,0.0039063,0,0.0048828,0   c2.4521484-0.0522461,4.9423828-0.1904297,7.3505859-0.3242188c2.8994141-0.1606445,5.8974609-0.3271484,8.8398438-0.34375   c0.1337891-0.0009766,0.2431641-0.105957,0.2490234-0.2392578l0.3222656-7.515625   C33.9009056,17.4956532,35.9198875,18.851366,33.5731468,18.7797718z M33.5936546,24.5932484   c-0.8048706,6.927124-0.6243286,9.079958-1.1103516,18.8481464c-2.8779297,0.0244141-5.7998047,0.1865234-8.6269531,0.3432617   c-2.3173828,0.128418-4.7099609,0.2612305-7.0673828,0.3173828l0.3271484-7.7714844   c0.203125-6.1264668,0.4658203-8.4453144,0.7695313-11.1298847c0.1660156-1.4711914,0.3378906-2.9907227,0.5185547-5.2817383   c2.1494141-0.0620117,4.3271484-0.1826172,6.4355469-0.2993164c7.6585693-0.4230347,8.7577515-0.3252563,9.2734375-0.3398438   C33.9403343,21.6098499,33.7635765,23.1254749,33.5936546,24.5932484z"/><path d="M24.2040062,45.4658089c-0.2441406,0.2543945-0.3730469,1.1079102-0.2890625,1.3764648   c0.1083984,0.3432617,0.7939453,0.6928711,1.3574219,0.6928711c1.2284546,0,1.3675537-1.5994263,0.8125-2.1674805   C25.6385765,44.9116096,24.6678734,44.9814339,24.2040062,45.4658089z M25.2723656,47.0351448   c-0.4130859,0-0.8330078-0.2641602-0.8798828-0.3408203c-0.0371094-0.1499023,0.0712891-0.7651367,0.1728516-0.8818359   c0.1572266-0.1640625,0.4248047-0.2700195,0.6816406-0.2700195C26.2265892,45.542469,26.0201073,47.0351448,25.2723656,47.0351448z   "/><path d="M26.3709984,17.9243031c0.0039063,0,0.0087891,0,0.0126953-0.0004883   c0.8623047-0.0439453,1.7333984-0.0722656,2.5878906-0.0839844c0.1386719-0.0019531,0.2490234-0.1152344,0.2470703-0.253418   c-0.0019531-0.1367188-0.1132813-0.246582-0.25-0.246582c-0.0009766,0-0.0019531,0-0.0029297,0   c-0.8623047,0.0117188-1.7392578,0.0400391-2.6074219,0.0849609c-0.1376953,0.0068359-0.2441406,0.1245117-0.2373047,0.262207   C26.1278343,17.8207874,26.2381859,17.9243031,26.3709984,17.9243031z"/><path d="M24.240139,17.9828968c0.0029297,0,0.0068359,0,0.0107422,0c0.3212891-0.0126953,0.3974609-0.0112305,0.5029297-0.0058594   c0.0703125,0.0029297,0.1533203,0.0068359,0.3203125,0.0068359c0.0449219,0,0.0957031-0.0004883,0.1542969-0.0009766   c0.1376953-0.0014648,0.2480469-0.1147461,0.2470703-0.2524414c-0.0009766-0.1386719-0.1328125-0.2475586-0.2529297-0.2475586   c-0.2617188,0.0019531-0.3623047-0.0014648-0.4462891-0.0053711c-0.1132813-0.0048828-0.1943359-0.0087891-0.546875,0.0053711   c-0.1376953,0.0058594-0.2451172,0.1225586-0.2392578,0.2607422C23.9959984,17.8779163,24.1063499,17.9828968,24.240139,17.9828968   z"/><path d="M29.8553734,24.6371937c-0.0322266-0.090332-0.1132813-0.1538086-0.2089844-0.1640625   c-0.09375-0.0087891-0.1875,0.0351563-0.2382813,0.1162109c-1.7630005,2.8259277-4.0378418,4.6777344-3.0488281,4.8544922   v0.0410156c0.0507813,0.0053711,0.0830078-0.0063477,0.1181641-0.0229492   c0.1861572,0.024231,0.4672852,0.0455322,0.8850708,0.0700073c0.0759888,1.3208618,0.0529175,2.6942768,0.0114136,4.0408344   c-0.1508789,4.960022-0.6051636,3.526123,2.9853516,3.7299805c0.1376953,0,0.25-0.1118164,0.25-0.25   c0-0.0302734-0.0058594-0.059082-0.015625-0.0859375c-0.0733643-2.3463135,0.1695557-4.5892944,0.0349121-7.2683125   c0.5847778,0.0291748,1.0040283,0.0501709,1.0314941,0.0515137c0.0039063,0.0004883,0.0087891,0.0004883,0.0126953,0.0004883   c0.0048828-0.0004883,0.0087891,0,0.0126953,0c0.1376953,0,0.25-0.1118164,0.25-0.25   c0-0.0546875-0.0175781-0.1054688-0.0478516-0.1464844C31.5958519,28.5043201,30.1322899,25.4050159,29.8553734,24.6371937z    M30.0887718,36.8027229H27.833889c-0.0579834-2.3068848,0.1755981-4.6165771,0.0322266-7.2431049   c0.4772949,0.0250854,1.019043,0.0517578,2.2625732,0.1138916C30.2724876,32.4308968,30.0292625,34.330677,30.0887718,36.8027229z    M26.7723656,29.0053577c0.4805298-0.7200317,2.1671143-2.8682861,2.7910156-3.7524414   c0.4102173,0.9743042,1.3701782,3.0432739,1.7441406,3.9790039C31.0835228,29.2205677,28.2023582,29.0765858,26.7723656,29.0053577   z"/><path d="M24.6190453,35.0678596c-0.0117188-0.0024414-0.0253906-0.0043945-0.0380859-0.0048828   c-0.0009766,0-0.0019531,0-0.0019531,0c-0.083313-0.0041504-0.4760742-0.0238037-1.0095825-0.0504761   c-0.1536865-2.7176514,0.1144409-5.0100117,0.0281372-7.5252094c-0.0048828-0.1347656-0.1152344-0.2416992-0.25-0.2416992   h-2.7548828c-0.0673828,0-0.1328125,0.0273438-0.1796875,0.0761719s-0.0722656,0.1147461-0.0703125,0.1826172   c0.0879517,2.5113525-0.1780396,4.5243549-0.0396729,7.3450947c-0.5812378-0.0290527-0.9974365-0.0497437-1.0247803-0.0511475   c-0.0830078-0.0107422-0.1591797,0.03125-0.2099609,0.0957031c-0.0498047,0.0644531-0.0654297,0.1494141-0.0419922,0.2275391   c0.223938,0.7224731,1.7739868,4.0057373,2.0576172,4.7900391c0.0332031,0.090332,0.1142578,0.1538086,0.2089844,0.1635742   c0.0087891,0.0009766,0.0175781,0.0014648,0.0263672,0.0014648c0.0859375,0,0.1660156-0.0439453,0.2119141-0.1181641   c0.5634766-0.9042358,3.0350952-3.9469604,3.2558594-4.5c0.0273438-0.0395508,0.0449219-0.0869141,0.0458984-0.1386719   C24.8358421,35.1972542,24.7381859,35.0922737,24.6190453,35.0678596z M20.8504906,27.7455921h2.2539063   c0.0613403,2.4438477-0.1794434,4.6187153-0.0372314,7.2418842c-0.7120361-0.0355835-1.5505371-0.0773926-2.2625732-0.1129761   C20.6681786,32.2084236,20.9089622,30.1739368,20.8504906,27.7455921z M21.3758812,39.2953987   c-0.4389648-1.0379639-1.3721313-3.0465088-1.7451172-3.9790039c0.9707031,0.0488281,3.5380859,0.1767578,4.5351563,0.2265625   C23.6751976,36.2798347,21.9968529,38.4135628,21.3758812,39.2953987z"/></g><text x="0" y="66" fill="#000000" font-size="5px" font-weight="bold" font-family="'Helvetica Neue', Helvetica, Arial-Unicode, Arial, Sans-serif">Created by Vectors Point</text><text x="0" y="71" fill="#000000" font-size="5px" font-weight="bold" font-family="'Helvetica Neue', Helvetica, Arial-Unicode, Arial, Sans-serif">from the Noun Project</text></svg>