<svg xmlns="http://www.w3.org/2000/svg" xmlns:xlink="http://www.w3.org/1999/xlink" version="1.1" x="0px" y="0px" viewBox="0 0 51 63.75" enable-background="new 0 0 51 51" xml:space="preserve"><g><path d="M49.1721001,4.76583c0.1208496-1.6016846-1.1107788-3.0373535-2.7753906-3.0673828   c-13.6519775-0.2462769-27.585207-0.0332031-41.4033203,0.637207C3.4726963,2.4095068,2.279459,3.6644506,2.2922153,5.2062597   c0,0.0001831,0,0.0002441,0,0.0002441V5.206748c0.0489502,5.8768921,0.012146,11.4898691-0.4575195,17.0839844   c-0.3369141,4.0092773-0.5800781,6.9057617,0.331543,24.5126953c0.1157227,2.2216797,1.1645508,2.597168,4.2583008,2.597168   c5.0747681-0.0019531,15.3178711-0.987793,40.2041016-0.5463867c1.5600586,0,2.8954468-1.276001,2.8378906-2.8974609   C49.4263115,44.7898788,47.5312309,26.5118637,49.1721001,4.76583z M5.0422153,3.3346777   c2.5169678-0.1221924,5.0407104-0.229248,7.5668945-0.321228c11.3206787-0.4120483,22.5604267-0.5176392,33.769043-0.3150024   c1.0629272,0.0194092,1.8768311,0.9324951,1.796875,1.9921875c-0.1239014,1.638916-0.260437,3.8167114-0.3354492,5.25   c-5.1414795,0.2185059-5.2503052-0.6484985-44.5366211,0.5621338C3.3111973,8.955039,3.3086338,7.201438,3.2922153,5.1984472   C3.2839146,4.2013769,4.0524693,3.3825293,5.0422153,3.3346777z M46.5964165,47.8537216c0,0-0.0009804,0-0.0014648,0   c-24.6416035-0.4389648-35.3951416,0.5450439-40.1704102,0.546875c-3.1738281,0-3.1953125-0.4155273-3.2592773-1.6489258   c-1.4330444-27.659668-0.017395-18.7819824,0.1297607-35.2479248c39.3337402-1.2122803,39.2947998-0.3568726,44.4981689-0.5606079   c-0.9047241,18.8994751,0.640564,34.1191406,0.6743164,35.0487671   C48.501812,46.9901352,47.6959038,47.8537216,46.5964165,47.8537216z"/><path d="M7.1535435,8.1662207c0.1396484,0,0.2861328-0.0185547,0.4350586-0.0551758   c0.8056641-0.1962891,1.0888672-0.925293,1.0126953-1.5605469C8.5148716,5.835166,7.9474888,5.0456152,6.9299107,5.2155371   c-0.8818359,0.1435547-1.2255859,0.9238281-1.171875,1.5888672C5.8112583,7.460166,6.2702427,8.1662207,7.1535435,8.1662207z    M7.0099888,5.7087011c0.0605469-0.0097656,0.1191406-0.0146484,0.175293-0.0146484   c0.5561523,0,0.8662109,0.4750977,0.9194336,0.9160156c0.0463867,0.3857422-0.0917969,0.8828125-0.6342802,1.015625   C6.7262974,7.8048925,6.298563,7.2917089,6.2565708,6.7638769C6.2194614,6.3058691,6.4382114,5.8019629,7.0099888,5.7087011z"/><path d="M11.0993443,8.1657324c0.515625,0,0.9907227-0.2788086,1.2402344-0.7280273   c0.2666016-0.4799805,0.2270508-1.0639648-0.1079102-1.6025391c-0.2783203-0.4462891-0.8681641-0.7143555-1.4223633-0.6196289   c-0.5498047,0.0893555-1.0024414,0.5151367-1.1533203,1.0839844c-0.1503906,0.5698242,0.0361328,1.1503906,0.487793,1.5146484   C10.4289341,8.0441504,10.7595005,8.1657324,11.0993443,8.1657324z M10.1393833,6.4274511   c0.1005859-0.378418,0.3950195-0.6606445,0.75-0.71875c0.0463867-0.0073242,0.09375-0.0112305,0.1411133-0.0112305   c0.3149385,0,0.6269531,0.1616211,0.7763672,0.4023438c0.2402344,0.3847656,0.2739258,0.7739258,0.0952148,1.0952148   c-0.2695313,0.4853516-0.9584961,0.6206055-1.4448242,0.2299805C10.1574497,7.1828222,10.0383091,6.8097754,10.1393833,6.4274511z"/><path d="M15.0236607,8.1525488c0.6420898,0,1.1533203-0.378418,1.3027344-0.9648438   c0.1269531-0.4980469,0.0146484-1.0541992-0.293457-1.4506836c-0.3217773-0.4145508-0.7988281-0.6118164-1.34375-0.5214844   c-0.9145508,0.1484375-1.1010742,0.9384766-1.1708984,1.2358398c-0.0092773,0.0380859-0.015625,0.0688477-0.019043,0.0800781   c-0.0166016,0.0336914-0.0253906,0.0703125-0.0263672,0.1074219c-0.0078125,0.40625,0.1318359,0.7675781,0.4038086,1.0444336   C14.1691685,7.9816504,14.5876255,8.1525488,15.0236607,8.1525488z M14.0046177,6.566123   c0.0869141-0.3686523,0.2250977-0.7695313,0.7646484-0.8574219c0.4384766-0.0673828,0.7265625,0.1518555,0.8686523,0.3349609   c0.2158203,0.2773438,0.2939453,0.668457,0.2041016,1.0209961c-0.1391602,0.5458984-0.6611328,0.5878906-0.8183594,0.5878906   c-0.2983398,0-0.59375-0.1191406-0.7900391-0.3193359c-0.1669922-0.1699219-0.2563477-0.3916016-0.2607422-0.644043   C13.9841099,6.6540136,13.9933872,6.6139746,14.0046177,6.566123z"/><path d="M20.4972935,6.5431738c7.7744141-0.4379883,15.6542988-0.3803711,23.4233418,0.1699219   c0.0117188,0.0009766,0.0239258,0.0014648,0.0356445,0.0014648c0.2602539,0,0.4794922-0.2011719,0.4980469-0.4648438   c0.0195313-0.2753906-0.1875-0.5141602-0.4633789-0.5336914c-7.8105469-0.5537109-15.7329121-0.6113281-23.5502949-0.1708984   c-0.2753906,0.0151367-0.4863281,0.2514648-0.4707031,0.5273438C19.9850864,6.3478613,20.2111607,6.5509863,20.4972935,6.5431738z"/><path d="M11.1872349,16.691124c-0.0068359-0.2763672-0.2089844-0.4990234-0.512207-0.487793l-3.8847656,0.0927734   c-0.2763672,0.0068359-0.4506836,0.2348633-0.4438477,0.5107422c0.0063477,0.2719727,0.2714844,0.4873047,0.543457,0.4873047   c0.0039063,0,0.0078125,0,0.012207-0.0004883l3.7973633-0.090332   C10.9753208,17.1964951,11.1935825,16.9674911,11.1872349,16.691124z"/><path d="M13.9484653,17.2961044c0.0039063,0,0.0078125,0,0.0117188,0l12.234375-0.2919922   c0.2763672-0.0068359,0.4946289-0.2358398,0.4882813-0.5117188c-0.0073242-0.2763672-0.2412109-0.5063486-0.5117188-0.4882813   l-12.234375,0.2919922c-0.2763672,0.0068359-0.4946289,0.2358398-0.4882813,0.5117188   C13.4553013,17.0797958,13.6774693,17.2961044,13.9484653,17.2961044z"/><path d="M10.7370396,21.5754013c0.0068359,0.2719727,0.2290039,0.4882813,0.5,0.4882813c0.0039063,0,0.0078125,0,0.0117188,0   l3.8852539-0.0927734c0.2763672-0.0068359,0.4946289-0.2358398,0.4882813-0.5117188   c-0.0068359-0.2758789-0.2456055-0.4907227-0.5117188-0.4882813l-3.8852539,0.0927734   C10.9489536,21.0705185,10.7306919,21.2995224,10.7370396,21.5754013z"/><path d="M41.4338188,21.0636826c-0.6455078,0.015625-2.4365234,0.0083008-4.2280273,0   c-1.8022461-0.0078125-3.6069336-0.0151367-4.2548828,0c-0.2763672,0.0068359-0.4946289,0.2358398-0.4882813,0.5117188   c0.0068359,0.2753906,0.2329102,0.4584961,0.5117188,0.4882813c0.6455078-0.0151367,2.4360352-0.0078125,4.2275391,0   c1.0361328,0.0043945,2.0727539,0.0087891,2.8901367,0.0087891c0.6044922,0,1.0893555-0.0024414,1.3652344-0.0087891   c0.2763672-0.0068359,0.4946289-0.2358398,0.4882813-0.5117188C41.9387016,21.2760849,41.6989555,21.0373154,41.4338188,21.0636826   z"/><path d="M17.8835239,21.5754013c0.0068359,0.2719727,0.2290039,0.4882813,0.5,0.4882813c0.0039063,0,0.0078125,0,0.0117188,0   l12.234375-0.2919922c0.2763672-0.0068359,0.4946289-0.2358398,0.4882813-0.5117188   c-0.0068359-0.2758789-0.2436523-0.4975586-0.5117188-0.4882813l-12.234375,0.2919922   C18.0954342,21.0705185,17.8771763,21.2995224,17.8835239,21.5754013z"/><path d="M41.4572563,25.5319443l-3.8852539-0.0927734c-0.3022461,0.0004883-0.5053711,0.2119141-0.512207,0.487793   c-0.0063477,0.2763672,0.2119141,0.5053711,0.487793,0.512207l3.8862305,0.0927734c0.0039063,0,0.0078125,0,0.0117188,0   c0.2709961,0,0.4931641-0.2163086,0.5-0.4882813C41.9518852,25.7677841,41.7336235,25.5387802,41.4572563,25.5319443z"/><path d="M19.7316685,25.5319443c-1.3213501-0.0309448-7.222229,0.0314331-8.4824219,0   c-0.3012695-0.0234375-0.5053711,0.2119141-0.512207,0.487793c-0.0063477,0.2763672,0.2119141,0.5053711,0.487793,0.512207   c1.3225098,0.0302124,7.2139282-0.0299072,8.4833984,0c0.2773438,0.0073242,0.5043945-0.2128906,0.5117188-0.4882813   C20.2262974,25.7677841,20.0080357,25.5387802,19.7316685,25.5319443z"/><path d="M21.564188,25.7282333c-0.0063477,0.2758789,0.2119141,0.5048828,0.4882813,0.5117188l12.2343769,0.2919922   c0.0039063,0,0.0078125,0,0.0117188,0c0.2709961,0,0.4931641-0.2163086,0.5-0.4882813   c0.0063477-0.2758789-0.2119141-0.5048828-0.4882813-0.5117188l-12.2343769-0.2919922   C21.8068638,25.2336044,21.5710239,25.4523544,21.564188,25.7282333z"/><path d="M19.3932896,38.7653427c-0.6357422-0.4667969-1.2661133-0.9604492-1.8803711-1.4711914l1.9516602-1.9150391   c0.684082-0.6710815,0.7070923-1.77771,0.0234375-2.4746094c-0.6557617-0.6679688-1.7998047-0.6875-2.4833984-0.0146484   c-2.4055786,2.4830322-3.8914795,3.3431396-3.8154297,4.6020508c0.0649414,1.0664063,1.2412109,1.9707031,4.1323242,4.0932617   c0.7855835,0.5796509,1.8829346,0.3950195,2.4462891-0.3740234C20.3403721,40.432579,20.1736851,39.3364487,19.3932896,38.7653427z    M18.9616489,40.6198349c-0.2373047,0.3227539-0.722168,0.3999023-1.0478516,0.1601563   c-2.140625-1.5722656-3.6875-2.7080078-3.7260742-3.3491211c-0.039978-0.651123,1.4658813-1.7094727,3.5263672-3.8359375   c0.2940063-0.289978,0.7697144-0.2865601,1.0600586,0.0097656c0.2895508,0.2954102,0.2851563,0.7709961-0.0097656,1.0605469   l-2.34375,2.2998047c-0.1000977,0.0981445-0.1542969,0.2338867-0.1494141,0.3740234   c0.0043945,0.1401367,0.0678711,0.2714844,0.1743164,0.362793c0.7626953,0.6523438,1.5556641,1.28125,2.355957,1.8696289   C19.135294,39.8155136,19.2077427,40.284996,18.9616489,40.6198349z"/><path d="M33.9352837,32.8815536c-0.6665039-0.6552734-1.8203125-0.6455078-2.4750996,0.0229492   c-0.3623047,0.3691406-0.5380859,0.7783203-0.5229492,1.215332c0.0425415,1.2097778,1.5536518,2.1744385,2.524416,3.1533203   c-0.6186523,0.5146484-1.2583008,1.0151367-1.9072285,1.4921875c-0.7773438,0.5712891-0.9453125,1.668457-0.3740234,2.4462891   c0.3286133,0.4472656,0.8559589,0.7138672,1.4111347,0.7138672c0.3740234,0,0.7319336-0.1171875,1.0351563-0.3398438   c1.2021484-0.8833008,2.3657227-1.8334961,3.4560547-2.8232422c0.0678711-0.0610352,0.1220703-0.1137695,0.1640625-0.15625   c0.3276367-0.3276367,0.5146484-0.7817383,0.5126953-1.2451172C37.7544975,36.1972885,37.0304375,36.0745468,33.9352837,32.8815536   z M36.5373344,37.9015732l-0.125,0.1191406c-1.0668983,0.9677734-2.203125,1.8959961-3.3769531,2.7587891   c-0.3276367,0.2402344-0.8115234,0.1640625-1.0493183-0.159668c-0.2446289-0.3334961-0.1728516-0.8037109,0.1601582-1.0488281   c0.8071289-0.5927734,1.6000977-1.2211914,2.3564453-1.8681641c0.2050781-0.1748047,0.234375-0.4804688,0.0664063-0.690918   c-0.8150635-1.0269775-2.6049213-2.1436768-2.6323261-2.9272461c-0.003418-0.0986328,0.0170898-0.2553711,0.2373066-0.4794922   c0.2998047-0.3060303,0.777832-0.2879028,1.0517578-0.019043c2.8213501,2.9111328,3.5310059,3.1762085,3.5336914,3.7788086   C36.760479,37.5641708,36.6804008,37.7585068,36.5373344,37.9015732z"/><path d="M28.0246372,30.8273544c-0.5834961,0-1.1079102,0.3027344-1.4384766,0.831543   c-1.1533203,1.8452148-1.8305664,3.2158203-2.5478516,4.6674805c-0.699707,1.4150391-1.4228516,2.878418-2.6689453,4.9682617   c-0.4949951,0.8297119-0.2265015,1.9031372,0.6049805,2.3994141c0.8421021,0.5037231,1.9145508,0.2074585,2.3999023-0.6054688   c1.234375-2.0678711,2.0581055-3.7177734,2.784668-5.1733398c0.7280273-1.4580078,1.4155273-2.8354492,2.3950195-4.4008789   C30.3516636,32.2389145,29.338541,30.8273544,28.0246372,30.8273544z M28.7062778,32.9840927   c-1.0053711,1.6064453-1.703125,3.0043945-2.4418945,4.484375c-0.7539063,1.5102539-1.5336914,3.0717773-2.7485352,5.1074219   c-0.2050781,0.3442383-0.6821289,0.4667969-1.0283203,0.2597656c-0.355957-0.2127686-0.472229-0.6716919-0.2597656-1.0288086   c1.2666016-2.1235352,1.9990234-3.6049805,2.7070313-5.0375977c0.7055664-1.4282227,1.3725586-2.777832,2.4990234-4.5800781   c0.1503906-0.2402344,0.3491211-0.3618164,0.5908203-0.3618164C28.5514927,31.8273544,29.0854282,32.3767319,28.7062778,32.9840927   z"/></g><text x="0" y="66" fill="#000000" font-size="5px" font-weight="bold" font-family="'Helvetica Neue', Helvetica, Arial-Unicode, Arial, Sans-serif">Created by Vectors Point</text><text x="0" y="71" fill="#000000" font-size="5px" font-weight="bold" font-family="'Helvetica Neue', Helvetica, Arial-Unicode, Arial, Sans-serif">from the Noun Project</text></svg>