<svg xmlns="http://www.w3.org/2000/svg" xmlns:xlink="http://www.w3.org/1999/xlink" version="1.1" x="0px" y="0px" viewBox="0 0 51 63.75" enable-background="new 0 0 51 51" xml:space="preserve"><g><path d="M46.270153,32.1140022c-0.1577759-0.0563354-0.3347168-0.0964355-0.5108032-0.1374531   c0.4021606-1.9435425,0.8045654-4.4733887,1.1948853-6.9338379c0.4072266-2.5683594,0.828125-5.2236328,1.2392578-7.1337891   c0.6417847-2.8844595-0.7678223-3.9291372-3.6982422-3.8271475c-2.3393555,0.0673828-4.1738281,0.0942383-6.8720703,0.1337891   c-3.9789429,0.0580444-9.8482075,0.1442871-21.9507465,0.4264526c-1.0643921-6.3797607-1.7138672-9.0734253-7.4760132-9.0734253   c-1.2539058,0-2.8442378,0.1191406-5.0039063,0.3740234C2.1223242,6.0660272,1.3807471,7.029345,1.5025733,8.0778685   c0.1201172,1.0219727,1.0942383,1.8022461,2.1362305,1.6782227C5.7227273,9.5088987,6.9846292,9.485095,8.7970066,9.4601927   c1.784668,0,1.8339844,0.2055664,2.2177734,1.8066406c0.4743042,1.9770508,0.6808472,2.1495972,0.9564209,4.159729   c0.4354858,3.11975,0.1760864,6.9957266,1.291626,16.9623413c0.2106934,1.5803223,0.5859985,2.4613647,1.3886108,2.9036255   c1.3601074,0.9119873,3.5620117,0.0996704,9.675354,0.0548706l1.0883789-0.0024414   c4.8374023,0,17.2031269,0.0849609,19.0961933,0.2954102c0.8222656,0.0913086,1.1635742,0.6191406,1.1376953,1.0859375   c-0.1078491,1.2402344-2.7044067,1.1304321-4.7144775,1.1108398c-1.4476929-1.0356445-3.5965576-1.2976685-5.274353-0.052063   c-6.9655781-0.0690308-11.8084736-0.1181641-15.1534443-0.1528931c-1.4118042-0.8461304-3.1940918-0.9609375-4.6598511-0.0492554   c-1.378418-0.0149536-2.0596313-0.0229492-2.354126-0.0265503l-0.2011719-0.0029297   c-0.0444336,0-0.0878906,0.0058594-0.1289063,0.0170898c-1.1538086,0.0688477-1.7626953,0.9897461-1.769043,1.8999023   c-0.0068359,0.949707,0.640625,1.9204102,1.8935547,1.9384766l0.3389282,0.0032959   c-0.1368408,2.416748,1.788208,4.019165,4.0287476,4.019165c2.0501099,0,4.1681519-1.359375,4.5905151-3.9350586   l11.4840107,0.1118774c-0.0270996,2.2913818,1.8371582,3.8231812,4.0324097,3.8231812   c1.9992065,0,4.0680542-1.2885132,4.5626221-3.7394409l0.1673584,0.0016479h0.0048828   c3.9003906,0,6.4980469-1.5664063,6.9492188-4.1899414C49.8336296,35.2497444,48.4381218,32.8820686,46.270153,32.1140022z    M11.9874363,11.0334349c-0.4389648-1.8300781-0.7158203-2.5732422-3.1904297-2.5732422   C8.5067844,8.462512,8.2114964,8.4647703,8.3590183,8.4640989c-0.8647456,0-2.6425776,0.0385742-4.8383789,0.2988281   C3.0103858,8.8264036,2.5528662,8.4479856,2.4957373,7.9621453C2.4376929,7.4555535,2.7923682,6.9958367,3.3087256,6.9357781   C5.4293313,6.6852899,6.982554,6.5685906,8.1964207,6.5685906c4.7973022,0,5.3650513,1.6439214,6.4645996,8.0971069   c-0.5810547,0.0136719-1.1774902,0.027832-1.7866821,0.0424194C12.5881443,12.953723,12.4494114,12.9619017,11.9874363,11.0334349z    M44.1720085,34.6091194c-20.8845844-0.8582764-27.635561,0.4483643-28.9216938-0.1192627   c-1.961853-1.237854-1.743103-14.4747334-2.2131958-18.5981445c-0.0067139-0.0599976-0.0109253-0.1279297-0.0179443-0.1868896   c13.9443359-0.3334961,20.3569202-0.4272461,24.6186543-0.4892578c2.7036133-0.0395508,4.5419922-0.0668945,6.8901367-0.1342773   c2.7956543-0.0979004,3.0845947,0.8331909,2.6884766,2.6137686c-0.4174805,1.9404297-0.8408203,4.609375-1.25,7.190918   C45.1505241,30.0312977,44.9925041,30.873827,44.1720085,34.6091194z M12.3936863,39.4777718   c0.0064697-0.9250488,0.7679443-0.9066162,1.3173828-0.9169922l0.0004883-0.0019531   c0.2226563,0.0026245,0.5562134,0.0064697,1.0213013,0.0116577c-0.5167236,0.6350098-0.762085,1.2037964-0.9378052,1.8438721   C13.6740818,40.3701057,12.3842258,40.646534,12.3936863,39.4777718z M14.9957371,40.00951   c1.6499634-3.4945679,6.4869385-2.1124268,6.3408203,0.8164063C21.0612888,46.3630257,12.643137,44.9970589,14.9957371,40.00951z    M22.3175755,40.4971809c-0.0366821-0.6818848-0.2635498-1.3093262-0.6709595-1.8532715   c3.1032715,0.0320435,7.3245239,0.0748901,13.0347309,0.1316528c-0.4119873,0.5663452-0.6710205,1.1340332-0.8328857,1.8338013   C28.952158,40.5616951,25.1909275,40.525135,22.3175755,40.4971809z M35.1026726,40.0099983   c1.6622925-3.5223389,6.4850464-2.0652466,6.3413086,0.815918C41.1703606,46.3298225,32.7165031,45.0687141,35.1026726,40.0099983z    M48.4605827,37.3342171c-0.3671875,2.1342773-2.5395508,3.3588867-5.9589844,3.359375   c-0.0228882-0.0002441-0.0446167-0.0004272-0.0672607-0.0006714c0.0001221-0.6702881-0.1707153-1.2979736-0.5220337-1.8459473   c2.005188,0.0194702,4.5615845-0.0593872,4.7338257-2.0493774c0.0457764-0.8184814-0.4534912-1.7026367-1.484436-2.0335693   c0.1322632-0.6027832,0.2612915-1.2022705,0.3884888-1.8025513c0.1271973,0.0316162,0.2701416,0.0537109,0.3845215,0.0944214   C47.6583366,33.6667366,48.7681999,35.5461311,48.4605827,37.3342171z"/><path d="M21.0899754,18.7267933c-0.2768555-0.0288086-0.5219727,0.1645508-0.5541992,0.4389648   c-0.4291992,3.6894531-0.6591797,7.4360352-0.6831055,11.1357422c-0.0019531,0.2763672,0.2207031,0.5014648,0.496582,0.503418   c0.0014648,0,0.0024414,0,0.003418,0c0.2749023,0,0.4980469-0.2216797,0.5-0.496582   c0.0239258-3.6635742,0.2514648-7.3735352,0.6762695-11.0273438   C21.5611668,19.0070667,21.3643894,18.7585316,21.0899754,18.7267933z"/><path d="M27.4034519,18.7267933c-0.2734375-0.0288086-0.5219727,0.1645508-0.5541992,0.4389648   c-0.4291992,3.6894531-0.6591797,7.4360352-0.6831055,11.1357422c-0.0019531,0.2763672,0.2207031,0.5014648,0.496582,0.503418   c0.0014648,0,0.0024414,0,0.003418,0c0.2749023,0,0.4980469-0.2216797,0.5-0.496582   c0.0239258-3.6635742,0.2514648-7.3735352,0.6762695-11.0273438C27.8746433,19.0070667,27.677866,18.7585316,27.4034519,18.7267933   z"/><path d="M33.7174187,18.7267933c-0.2709961-0.0288086-0.5219727,0.1645508-0.5541992,0.4389648   c-0.4296875,3.6879883-0.659668,7.4345703-0.6835938,11.1357422c-0.0019531,0.2763672,0.2207031,0.5014648,0.496582,0.503418   c0.0014648,0,0.0024414,0,0.003418,0c0.2749023,0,0.4980469-0.2216797,0.5-0.496582   c0.0239258-3.6650391,0.2514648-7.375,0.6767578-11.0273438C34.1886101,19.0070667,33.9918327,18.7585316,33.7174187,18.7267933z"/><path d="M40.0308952,18.7267933c-0.2744141-0.0288086-0.5214844,0.1645508-0.5541992,0.4389648   c-0.4296875,3.6879883-0.659668,7.4345703-0.6835938,11.1357422c-0.0019531,0.2763672,0.2207031,0.5014648,0.496582,0.503418   c0.0014648,0,0.0024414,0,0.0024414,0c0.2758789,0,0.4990234-0.2216797,0.5009766-0.496582   c0.0239258-3.6650391,0.2514648-7.375,0.6767578-11.0273438C40.5020866,19.0070667,40.3053093,18.7585316,40.0308952,18.7267933z"/><g><path d="M17.7452488,43.2307014L17.7452488,43.2307014c-0.722168,0-1.3310547-0.3925781-1.6699219-1.0771484    c-0.300293-0.6069336-0.2553711-1.3056641,0.1235352-1.9165039c0.7211914-1.1611328,2.3608398-1.4306641,3.3657227-0.4301758    c0.5463867,0.543457,0.6977539,1.2475586,0.4150391,1.9316406C19.6285496,42.5890999,18.6676121,43.2307014,17.7452488,43.2307014    z M17.0484715,40.7643929c-0.1132813,0.1826172-0.2739258,0.5478516-0.0766602,0.9458008    c0.4697876,0.9488373,1.7597485,0.4323807,2.0834961-0.3535156c0.1274414-0.3081055,0.0629883-0.5830078-0.1958008-0.8408203    C18.2417564,39.9018745,17.4360142,40.1402016,17.0484715,40.7643929z"/></g><g><path d="M37.8931999,43.2048225L37.8931999,43.2048225c-0.7563477,0-1.3798828-0.3833008-1.7109375-1.0512695    c-0.3525391-0.7119141-0.0991211-1.5473633,0.2255859-2.0458984c0.9561462-1.4718399,3.1731796-1.0677185,3.6601563,0.2993164    c0.2236328,0.628418,0.1391602,1.269043-0.2382813,1.8037109C39.4039421,42.8146858,38.6436882,43.2048225,37.8931999,43.2048225z     M37.2462273,40.6525764c-0.1953125,0.2998047-0.3154297,0.7592773-0.1674805,1.0571289    c0.3845558,0.7784042,1.4936256,0.5488129,1.934082-0.0756836c0.1899414-0.269043,0.2280273-0.5693359,0.112793-0.8920898    C38.9133224,40.1436386,37.7451401,39.883255,37.2462273,40.6525764z"/></g></g><text x="0" y="66" fill="#000000" font-size="5px" font-weight="bold" font-family="'Helvetica Neue', Helvetica, Arial-Unicode, Arial, Sans-serif">Created by Vectors Point</text><text x="0" y="71" fill="#000000" font-size="5px" font-weight="bold" font-family="'Helvetica Neue', Helvetica, Arial-Unicode, Arial, Sans-serif">from the Noun Project</text></svg>